<svg width="431" height="144" viewBox="0 0 431 144" fill="none" xmlns="http://www.w3.org/2000/svg">
<g filter="url(#filter0_dddd_68_2214)">
<rect x="10" y="1" width="411" height="108" rx="24" fill="white"/>
<rect x="16" y="7" width="96" height="96" rx="18" fill="#059669" fill-opacity="0.1"/>
<path d="M82.4897 55C82.4897 53.909 82.2149 52.8359 81.6909 51.8789C81.1669 50.9219 80.411 50.1112 79.4917 49.5234C78.9601 49.1833 78.6991 48.5474 78.8374 47.9316C79.0779 46.8621 79.043 45.7482 78.7378 44.6953C78.4326 43.6426 77.8663 42.6832 77.0913 41.9082C76.3162 41.1332 75.357 40.5669 74.3042 40.2617C73.2516 39.9567 72.139 39.9238 71.0698 40.1641C70.4539 40.3025 69.8162 40.0397 69.4761 39.5078C68.8885 38.589 68.0791 37.8325 67.1226 37.3086C66.1655 36.7846 65.0906 36.5098 63.9995 36.5098C62.9086 36.5098 61.8353 36.7847 60.8784 37.3086C59.9214 37.8326 59.1107 38.5886 58.5229 39.5078C58.183 40.0394 57.5469 40.3021 56.9312 40.1641C55.8634 39.9248 54.7517 39.9593 53.7007 40.2637C52.6499 40.5682 51.6919 41.1334 50.9175 41.9062C50.1433 42.6791 49.5775 43.6354 49.271 44.6855C48.9644 45.7361 48.9264 46.8477 49.1636 47.916C49.3003 48.5332 49.0356 49.1698 48.5015 49.5078C47.5754 50.094 46.8133 50.9052 46.2847 51.8652C45.756 52.8255 45.4781 53.9038 45.478 55C45.478 56.0962 45.756 57.1745 46.2847 58.1348C46.8133 59.0949 47.5754 59.906 48.5015 60.4922C49.0358 60.8304 49.3006 61.4686 49.1636 62.0859C48.9266 63.1539 48.9646 64.2643 49.271 65.3145C49.5776 66.365 50.1429 67.3227 50.9175 68.0957C51.692 68.8686 52.6497 69.4338 53.7007 69.7383C54.7517 70.0427 55.8634 70.0752 56.9312 69.8359C57.5477 69.6977 58.1854 69.9613 58.5249 70.4941C59.1119 71.4169 59.9237 72.1768 60.8823 72.7031C61.8408 73.2293 62.9159 73.5058 64.0093 73.5059C65.1029 73.5059 66.1795 73.2295 67.1382 72.7031C68.0967 72.1768 68.9067 71.4168 69.4937 70.4941C69.8325 69.9619 70.4695 69.6992 71.0854 69.8359C72.1534 70.0729 73.2639 70.0368 74.314 69.7305C75.3645 69.4238 76.3222 68.8567 77.0952 68.082C77.8682 67.3074 78.4334 66.3499 78.7378 65.2988C79.0422 64.2476 79.0749 63.1363 78.8354 62.0684C78.6975 61.4528 78.9602 60.8165 79.4917 60.4766C80.411 59.8888 81.1669 59.0781 81.6909 58.1211C82.2148 57.1641 82.4897 56.091 82.4897 55ZM68.939 47.9395C69.5247 47.3538 70.4743 47.354 71.0601 47.9395C71.6458 48.5252 71.6458 49.4748 71.0601 50.0605L59.0601 62.0605C58.4743 62.6462 57.5247 62.6463 56.939 62.0605C56.3535 61.4748 56.3534 60.5251 56.939 59.9395L68.939 47.9395ZM70.019 59.5C70.8474 59.5 71.5189 60.1717 71.519 61C71.519 61.8284 70.8475 62.5 70.019 62.5H69.9995C69.1713 62.4998 68.4995 61.8283 68.4995 61C68.4996 60.1718 69.1713 59.5002 69.9995 59.5H70.019ZM58.019 47.5C58.8474 47.5 59.5189 48.1717 59.519 49C59.519 49.8284 58.8475 50.5 58.019 50.5H57.9995C57.1713 50.4998 56.4995 49.8283 56.4995 49C56.4996 48.1718 57.1713 47.5002 57.9995 47.5H58.019ZM85.4897 55C85.4897 56.5945 85.0894 58.1639 84.3237 59.5625C83.7204 60.6643 82.9024 61.6288 81.9272 62.4102C82.0699 63.6564 81.9694 64.9215 81.6187 66.1328C81.1737 67.6692 80.3481 69.069 79.2183 70.2012C78.0885 71.3332 76.691 72.1612 75.1558 72.6094C73.9451 72.9628 72.6798 73.0659 71.4331 72.9258C70.6518 73.9056 69.6859 74.7276 68.5815 75.334C67.1805 76.1031 65.6075 76.5059 64.0093 76.5059C62.4111 76.5058 60.838 76.1032 59.437 75.334C58.333 74.7278 57.3666 73.9072 56.5854 72.9277C55.3406 73.0697 54.0766 72.9696 52.8667 72.6191C51.3304 72.1742 49.9305 71.3485 48.7983 70.2188C47.6664 69.0891 46.8383 67.6914 46.3901 66.1562C46.037 64.9463 45.9321 63.6815 46.0718 62.4355C45.0887 61.6546 44.2645 60.6877 43.6558 59.582C42.8831 58.1785 42.478 56.6021 42.478 55C42.4781 53.3979 42.883 51.8214 43.6558 50.418C44.2648 49.3119 45.0882 48.3435 46.0718 47.5625C45.9324 46.3173 46.0372 45.0529 46.3901 43.8438C46.8383 42.3087 47.6664 40.9109 48.7983 39.7812C49.9305 38.6514 51.3304 37.8258 52.8667 37.3809C54.0772 37.0303 55.342 36.9281 56.5874 37.0703C57.3685 36.0954 58.3355 35.2809 59.437 34.6777C60.8357 33.9119 62.4049 33.5098 63.9995 33.5098C65.5942 33.5098 67.1633 33.9119 68.562 34.6777C69.6632 35.2807 70.6286 36.0959 71.4097 37.0703C72.6582 36.9267 73.9266 37.0291 75.1401 37.3809C76.6786 37.8269 78.0797 38.6545 79.2124 39.7871C80.3453 40.92 81.1726 42.3225 81.6187 43.8613C81.97 45.0739 82.0723 46.3403 81.9292 47.5879C82.9044 48.3692 83.7204 49.3357 84.3237 50.4375C85.0895 51.8362 85.4897 53.4054 85.4897 55Z" fill="#059669"/>
<path d="M134.68 49V35.272L131.44 37.264V33.664L134.68 31.72H138.016V49H134.68ZM147.474 49.36C146.602 49.36 145.782 49.18 145.014 48.82C144.254 48.46 143.598 47.96 143.046 47.32C142.494 46.68 142.098 45.936 141.858 45.088L145.002 44.248C145.106 44.656 145.29 45.008 145.554 45.304C145.826 45.6 146.138 45.832 146.49 46C146.85 46.16 147.218 46.24 147.594 46.24C148.09 46.24 148.542 46.12 148.95 45.88C149.366 45.64 149.694 45.316 149.934 44.908C150.182 44.5 150.306 44.048 150.306 43.552C150.306 43.056 150.182 42.604 149.934 42.196C149.694 41.788 149.366 41.464 148.95 41.224C148.542 40.984 148.09 40.864 147.594 40.864C146.986 40.864 146.49 40.968 146.106 41.176C145.722 41.376 145.434 41.568 145.242 41.752L142.482 40.912L143.01 31.72H152.442V34.768H144.81L145.962 33.688L145.602 39.616L145.05 38.944C145.482 38.592 145.974 38.336 146.526 38.176C147.078 38.016 147.594 37.936 148.074 37.936C149.162 37.936 150.118 38.18 150.942 38.668C151.774 39.148 152.422 39.812 152.886 40.66C153.358 41.5 153.594 42.464 153.594 43.552C153.594 44.64 153.31 45.624 152.742 46.504C152.174 47.376 151.426 48.072 150.498 48.592C149.57 49.104 148.562 49.36 147.474 49.36ZM158.871 49L156.711 46.84L171.831 31.72L173.991 33.904L158.871 49ZM170.391 49.36C169.599 49.36 168.875 49.168 168.219 48.784C167.571 48.392 167.051 47.872 166.659 47.224C166.267 46.568 166.071 45.84 166.071 45.04C166.071 44.256 166.271 43.536 166.671 42.88C167.071 42.224 167.599 41.7 168.255 41.308C168.911 40.916 169.623 40.72 170.391 40.72C171.183 40.72 171.907 40.916 172.563 41.308C173.219 41.692 173.739 42.212 174.123 42.868C174.515 43.516 174.711 44.24 174.711 45.04C174.711 45.84 174.515 46.568 174.123 47.224C173.739 47.872 173.219 48.392 172.563 48.784C171.907 49.168 171.183 49.36 170.391 49.36ZM170.391 46.6C170.671 46.6 170.927 46.528 171.159 46.384C171.399 46.24 171.591 46.052 171.735 45.82C171.879 45.58 171.951 45.32 171.951 45.04C171.951 44.76 171.879 44.504 171.735 44.272C171.591 44.032 171.399 43.84 171.159 43.696C170.927 43.552 170.671 43.48 170.391 43.48C170.111 43.48 169.851 43.552 169.611 43.696C169.379 43.84 169.191 44.032 169.047 44.272C168.903 44.504 168.831 44.76 168.831 45.04C168.831 45.32 168.903 45.58 169.047 45.82C169.191 46.052 169.379 46.24 169.611 46.384C169.851 46.528 170.111 46.6 170.391 46.6ZM160.311 40C159.519 40 158.795 39.808 158.139 39.424C157.483 39.032 156.959 38.512 156.567 37.864C156.183 37.208 155.991 36.48 155.991 35.68C155.991 34.896 156.191 34.176 156.591 33.52C156.991 32.864 157.519 32.34 158.175 31.948C158.831 31.556 159.543 31.36 160.311 31.36C161.103 31.36 161.823 31.556 162.471 31.948C163.127 32.332 163.651 32.852 164.043 33.508C164.435 34.156 164.631 34.88 164.631 35.68C164.631 36.48 164.435 37.208 164.043 37.864C163.651 38.512 163.127 39.032 162.471 39.424C161.823 39.808 161.103 40 160.311 40ZM160.311 37.24C160.591 37.24 160.847 37.168 161.079 37.024C161.319 36.88 161.511 36.692 161.655 36.46C161.799 36.22 161.871 35.96 161.871 35.68C161.871 35.4 161.799 35.144 161.655 34.912C161.511 34.672 161.319 34.48 161.079 34.336C160.847 34.192 160.591 34.12 160.311 34.12C160.031 34.12 159.771 34.192 159.531 34.336C159.299 34.48 159.111 34.672 158.967 34.912C158.823 35.144 158.751 35.4 158.751 35.68C158.751 35.96 158.823 36.22 158.967 36.46C159.111 36.692 159.299 36.88 159.531 37.024C159.771 37.168 160.031 37.24 160.311 37.24ZM187.997 49.36C186.693 49.36 185.549 49.068 184.565 48.484C183.581 47.9 182.813 47.096 182.261 46.072C181.717 45.04 181.445 43.856 181.445 42.52C181.445 41.168 181.725 39.98 182.285 38.956C182.845 37.924 183.617 37.12 184.601 36.544C185.585 35.968 186.717 35.68 187.997 35.68C189.301 35.68 190.445 35.972 191.429 36.556C192.421 37.14 193.193 37.948 193.745 38.98C194.297 40.004 194.573 41.184 194.573 42.52C194.573 43.864 194.293 45.052 193.733 46.084C193.181 47.108 192.409 47.912 191.417 48.496C190.433 49.072 189.293 49.36 187.997 49.36ZM187.997 46.312C189.045 46.312 189.825 45.96 190.337 45.256C190.857 44.544 191.117 43.632 191.117 42.52C191.117 41.368 190.853 40.448 190.325 39.76C189.805 39.072 189.029 38.728 187.997 38.728C187.285 38.728 186.701 38.888 186.245 39.208C185.789 39.528 185.449 39.972 185.225 40.54C185.009 41.108 184.901 41.768 184.901 42.52C184.901 43.68 185.161 44.604 185.681 45.292C186.209 45.972 186.981 46.312 187.997 46.312ZM198.052 49V36.088C198.052 35.76 198.06 35.388 198.076 34.972C198.092 34.556 198.156 34.136 198.268 33.712C198.388 33.288 198.604 32.904 198.916 32.56C199.316 32.112 199.748 31.808 200.212 31.648C200.684 31.48 201.14 31.392 201.58 31.384C202.02 31.368 202.396 31.36 202.708 31.36H204.316V34H202.828C202.316 34 201.936 34.132 201.688 34.396C201.44 34.652 201.316 34.96 201.316 35.32V49H198.052ZM196.012 38.56V36.04H204.316V38.56H196.012ZM206.356 49V36.088C206.356 35.76 206.364 35.388 206.38 34.972C206.396 34.556 206.46 34.136 206.572 33.712C206.692 33.288 206.908 32.904 207.22 32.56C207.62 32.112 208.052 31.808 208.516 31.648C208.988 31.48 209.444 31.392 209.884 31.384C210.324 31.368 210.7 31.36 211.012 31.36H212.62V34H211.132C210.62 34 210.24 34.132 209.992 34.396C209.744 34.652 209.62 34.96 209.62 35.32V49H206.356ZM204.316 38.56V36.04H212.62V38.56H204.316ZM222.379 49L217.675 36.04H220.939L224.011 45.016L227.083 36.04H230.347L225.643 49H222.379ZM237.639 49.36C236.335 49.36 235.191 49.068 234.207 48.484C233.223 47.9 232.455 47.096 231.903 46.072C231.359 45.04 231.087 43.856 231.087 42.52C231.087 41.168 231.367 39.98 231.927 38.956C232.487 37.924 233.259 37.12 234.243 36.544C235.227 35.968 236.359 35.68 237.639 35.68C238.943 35.68 240.087 35.972 241.071 36.556C242.063 37.14 242.835 37.948 243.387 38.98C243.939 40.004 244.215 41.184 244.215 42.52C244.215 43.864 243.935 45.052 243.375 46.084C242.823 47.108 242.051 47.912 241.059 48.496C240.075 49.072 238.935 49.36 237.639 49.36ZM237.639 46.312C238.687 46.312 239.467 45.96 239.979 45.256C240.499 44.544 240.759 43.632 240.759 42.52C240.759 41.368 240.495 40.448 239.967 39.76C239.447 39.072 238.671 38.728 237.639 38.728C236.927 38.728 236.343 38.888 235.887 39.208C235.431 39.528 235.091 39.972 234.867 40.54C234.651 41.108 234.543 41.768 234.543 42.52C234.543 43.68 234.803 44.604 235.323 45.292C235.851 45.972 236.623 46.312 237.639 46.312ZM251.438 49.384C250.422 49.384 249.594 49.212 248.954 48.868C248.314 48.524 247.814 48.088 247.454 47.56C247.102 47.032 246.85 46.484 246.698 45.916C246.546 45.34 246.454 44.816 246.422 44.344C246.39 43.872 246.374 43.528 246.374 43.312V36.04H249.686V42.16C249.686 42.456 249.702 42.836 249.734 43.3C249.766 43.756 249.866 44.216 250.034 44.68C250.202 45.144 250.474 45.532 250.85 45.844C251.234 46.156 251.774 46.312 252.47 46.312C252.75 46.312 253.05 46.268 253.37 46.18C253.69 46.092 253.99 45.924 254.27 45.676C254.55 45.42 254.778 45.048 254.954 44.56C255.138 44.064 255.23 43.416 255.23 42.616L257.102 43.504C257.102 44.528 256.894 45.488 256.478 46.384C256.062 47.28 255.434 48.004 254.594 48.556C253.762 49.108 252.71 49.384 251.438 49.384ZM255.638 49V44.704H255.23V36.04H258.518V49H255.638ZM267.344 49.36C266 49.36 264.848 49.06 263.888 48.46C262.928 47.86 262.192 47.044 261.68 46.012C261.168 44.98 260.912 43.816 260.912 42.52C260.912 41.208 261.176 40.036 261.704 39.004C262.24 37.972 262.992 37.16 263.96 36.568C264.928 35.976 266.072 35.68 267.392 35.68C268.92 35.68 270.2 36.068 271.232 36.844C272.272 37.612 272.936 38.664 273.224 40L269.96 40.864C269.768 40.192 269.432 39.668 268.952 39.292C268.48 38.916 267.944 38.728 267.344 38.728C266.656 38.728 266.092 38.896 265.652 39.232C265.212 39.56 264.888 40.012 264.68 40.588C264.472 41.156 264.368 41.8 264.368 42.52C264.368 43.648 264.616 44.564 265.112 45.268C265.616 45.964 266.36 46.312 267.344 46.312C268.08 46.312 268.64 46.144 269.024 45.808C269.408 45.472 269.696 44.992 269.888 44.368L273.224 45.064C272.856 46.44 272.16 47.5 271.136 48.244C270.112 48.988 268.848 49.36 267.344 49.36ZM284.216 49V42.88C284.216 42.584 284.2 42.208 284.168 41.752C284.136 41.288 284.036 40.824 283.868 40.36C283.7 39.896 283.424 39.508 283.04 39.196C282.664 38.884 282.128 38.728 281.432 38.728C281.152 38.728 280.852 38.772 280.532 38.86C280.212 38.948 279.912 39.12 279.632 39.376C279.352 39.624 279.12 39.992 278.936 40.48C278.76 40.968 278.672 41.616 278.672 42.424L276.8 41.536C276.8 40.512 277.008 39.552 277.424 38.656C277.84 37.76 278.464 37.036 279.296 36.484C280.136 35.932 281.192 35.656 282.464 35.656C283.48 35.656 284.308 35.828 284.948 36.172C285.588 36.516 286.084 36.952 286.436 37.48C286.796 38.008 287.052 38.56 287.204 39.136C287.356 39.704 287.448 40.224 287.48 40.696C287.512 41.168 287.528 41.512 287.528 41.728V49H284.216ZM275.36 49V31.72H278.264V40.6H278.672V49H275.36ZM296.426 49.36C295.098 49.36 293.926 49.076 292.91 48.508C291.902 47.932 291.11 47.144 290.534 46.144C289.966 45.136 289.682 43.984 289.682 42.688C289.682 41.272 289.962 40.04 290.522 38.992C291.082 37.944 291.854 37.132 292.838 36.556C293.822 35.972 294.954 35.68 296.234 35.68C297.594 35.68 298.75 36 299.702 36.64C300.654 37.28 301.358 38.18 301.814 39.34C302.27 40.5 302.43 41.864 302.294 43.432H299.066V42.232C299.066 40.912 298.854 39.964 298.43 39.388C298.014 38.804 297.33 38.512 296.378 38.512C295.266 38.512 294.446 38.852 293.918 39.532C293.398 40.204 293.138 41.2 293.138 42.52C293.138 43.728 293.398 44.664 293.918 45.328C294.446 45.984 295.218 46.312 296.234 46.312C296.874 46.312 297.422 46.172 297.878 45.892C298.334 45.612 298.682 45.208 298.922 44.68L302.186 45.616C301.698 46.8 300.926 47.72 299.87 48.376C298.822 49.032 297.674 49.36 296.426 49.36ZM292.13 43.432V41.008H300.722V43.432H292.13ZM304.763 49V36.04H307.643V39.208L307.331 38.8C307.499 38.352 307.723 37.944 308.003 37.576C308.283 37.208 308.627 36.904 309.035 36.664C309.347 36.472 309.687 36.324 310.055 36.22C310.423 36.108 310.803 36.04 311.195 36.016C311.587 35.984 311.979 35.992 312.371 36.04V39.088C312.011 38.976 311.591 38.94 311.111 38.98C310.639 39.012 310.211 39.12 309.827 39.304C309.443 39.48 309.119 39.716 308.855 40.012C308.591 40.3 308.391 40.644 308.255 41.044C308.119 41.436 308.051 41.88 308.051 42.376V49H304.763Z" fill="#010104" fill-opacity="0.85"/>
<path d="M130.4 79L135.36 64.6H137.31L142.27 79H140.74L136.03 65.42H136.61L131.93 79H130.4ZM132.61 75.51V74.13H140.05V75.51H132.61ZM148.926 79.3C147.932 79.3 147.092 79.05 146.406 78.55C145.719 78.0433 145.199 77.36 144.846 76.5C144.492 75.6333 144.316 74.6633 144.316 73.59C144.316 72.4967 144.492 71.5233 144.846 70.67C145.206 69.81 145.732 69.1333 146.426 68.64C147.119 68.1467 147.972 67.9 148.986 67.9C149.972 67.9 150.819 68.15 151.526 68.65C152.232 69.15 152.772 69.83 153.146 70.69C153.526 71.55 153.716 72.5167 153.716 73.59C153.716 74.67 153.526 75.64 153.146 76.5C152.766 77.36 152.219 78.0433 151.506 78.55C150.792 79.05 149.932 79.3 148.926 79.3ZM144.066 83.8V68.2H145.386V76.33H145.546V83.8H144.066ZM148.776 77.93C149.529 77.93 150.156 77.74 150.656 77.36C151.156 76.98 151.529 76.4633 151.776 75.81C152.029 75.15 152.156 74.41 152.156 73.59C152.156 72.7767 152.032 72.0433 151.786 71.39C151.539 70.7367 151.162 70.22 150.656 69.84C150.156 69.46 149.519 69.27 148.746 69.27C147.992 69.27 147.366 69.4533 146.866 69.82C146.372 70.1867 146.002 70.6967 145.756 71.35C145.509 71.9967 145.386 72.7433 145.386 73.59C145.386 74.4233 145.509 75.17 145.756 75.83C146.002 76.4833 146.376 76.9967 146.876 77.37C147.376 77.7433 148.009 77.93 148.776 77.93ZM160.762 79.3C159.768 79.3 158.928 79.05 158.242 78.55C157.555 78.0433 157.035 77.36 156.682 76.5C156.328 75.6333 156.152 74.6633 156.152 73.59C156.152 72.4967 156.328 71.5233 156.682 70.67C157.042 69.81 157.568 69.1333 158.262 68.64C158.955 68.1467 159.808 67.9 160.822 67.9C161.808 67.9 162.655 68.15 163.362 68.65C164.068 69.15 164.608 69.83 164.982 70.69C165.362 71.55 165.552 72.5167 165.552 73.59C165.552 74.67 165.362 75.64 164.982 76.5C164.602 77.36 164.055 78.0433 163.342 78.55C162.628 79.05 161.768 79.3 160.762 79.3ZM155.902 83.8V68.2H157.222V76.33H157.382V83.8H155.902ZM160.612 77.93C161.365 77.93 161.992 77.74 162.492 77.36C162.992 76.98 163.365 76.4633 163.612 75.81C163.865 75.15 163.992 74.41 163.992 73.59C163.992 72.7767 163.868 72.0433 163.622 71.39C163.375 70.7367 162.998 70.22 162.492 69.84C161.992 69.46 161.355 69.27 160.582 69.27C159.828 69.27 159.202 69.4533 158.702 69.82C158.208 70.1867 157.838 70.6967 157.592 71.35C157.345 71.9967 157.222 72.7433 157.222 73.59C157.222 74.4233 157.345 75.17 157.592 75.83C157.838 76.4833 158.212 76.9967 158.712 77.37C159.212 77.7433 159.845 77.93 160.612 77.93ZM167.948 79V64.3H169.418V79H167.948ZM173.956 83.8L176.046 78.13L176.076 79.81L171.346 68.2H172.906L176.786 77.91H176.146L179.726 68.2H181.226L175.426 83.8H173.956ZM192.846 79C192.24 79.1267 191.64 79.1767 191.046 79.15C190.46 79.1233 189.933 78.9967 189.466 78.77C189.006 78.5433 188.656 78.19 188.416 77.71C188.223 77.31 188.116 76.9067 188.096 76.5C188.083 76.0867 188.076 75.6167 188.076 75.09V65.2H189.536V75.03C189.536 75.4833 189.54 75.8633 189.546 76.17C189.56 76.47 189.63 76.7367 189.756 76.97C189.996 77.4167 190.376 77.6833 190.896 77.77C191.423 77.8567 192.073 77.8367 192.846 77.71V79ZM185.766 69.46V68.2H192.846V69.46H185.766ZM199.094 79.3C198.02 79.3 197.104 79.0567 196.344 78.57C195.584 78.0833 195 77.41 194.594 76.55C194.187 75.69 193.984 74.7033 193.984 73.59C193.984 72.4567 194.19 71.4633 194.604 70.61C195.017 69.7567 195.604 69.0933 196.364 68.62C197.13 68.14 198.04 67.9 199.094 67.9C200.174 67.9 201.094 68.1433 201.854 68.63C202.62 69.11 203.204 69.78 203.604 70.64C204.01 71.4933 204.214 72.4767 204.214 73.59C204.214 74.7233 204.01 75.72 203.604 76.58C203.197 77.4333 202.61 78.1 201.844 78.58C201.077 79.06 200.16 79.3 199.094 79.3ZM199.094 77.89C200.294 77.89 201.187 77.4933 201.774 76.7C202.36 75.9 202.654 74.8633 202.654 73.59C202.654 72.2833 202.357 71.2433 201.764 70.47C201.177 69.6967 200.287 69.31 199.094 69.31C198.287 69.31 197.62 69.4933 197.094 69.86C196.574 70.22 196.184 70.7233 195.924 71.37C195.67 72.01 195.544 72.75 195.544 73.59C195.544 74.89 195.844 75.9333 196.444 76.72C197.044 77.5 197.927 77.89 199.094 77.89ZM213.513 79.3C212.7 79.3 212.017 79.1533 211.463 78.86C210.917 78.5667 210.507 78.1767 210.233 77.69C209.96 77.2033 209.823 76.6733 209.823 76.1C209.823 75.5133 209.94 75.0133 210.173 74.6C210.413 74.18 210.737 73.8367 211.143 73.57C211.557 73.3033 212.033 73.1 212.573 72.96C213.12 72.8267 213.723 72.71 214.383 72.61C215.05 72.5033 215.7 72.4133 216.333 72.34C216.973 72.26 217.533 72.1833 218.013 72.11L217.493 72.43C217.513 71.3633 217.307 70.5733 216.873 70.06C216.44 69.5467 215.687 69.29 214.613 69.29C213.873 69.29 213.247 69.4567 212.733 69.79C212.227 70.1233 211.87 70.65 211.663 71.37L210.233 70.95C210.48 69.9833 210.977 69.2333 211.723 68.7C212.47 68.1667 213.44 67.9 214.633 67.9C215.62 67.9 216.457 68.0867 217.143 68.46C217.837 68.8267 218.327 69.36 218.613 70.06C218.747 70.3733 218.833 70.7233 218.873 71.11C218.913 71.4967 218.933 71.89 218.933 72.29V79H217.623V76.29L218.003 76.45C217.637 77.3767 217.067 78.0833 216.293 78.57C215.52 79.0567 214.593 79.3 213.513 79.3ZM213.683 78.03C214.37 78.03 214.97 77.9067 215.483 77.66C215.997 77.4133 216.41 77.0767 216.723 76.65C217.037 76.2167 217.24 75.73 217.333 75.19C217.413 74.8433 217.457 74.4633 217.463 74.05C217.47 73.63 217.473 73.3167 217.473 73.11L218.033 73.4C217.533 73.4667 216.99 73.5333 216.403 73.6C215.823 73.6667 215.25 73.7433 214.683 73.83C214.123 73.9167 213.617 74.02 213.163 74.14C212.857 74.2267 212.56 74.35 212.273 74.51C211.987 74.6633 211.75 74.87 211.563 75.13C211.383 75.39 211.293 75.7133 211.293 76.1C211.293 76.4133 211.37 76.7167 211.523 77.01C211.683 77.3033 211.937 77.5467 212.283 77.74C212.637 77.9333 213.103 78.03 213.683 78.03ZM221.737 79V64.3H223.207V79H221.737ZM226.405 79V64.3H227.875V79H226.405ZM234.877 79V68.2H236.197V70.8L235.937 70.46C236.057 70.14 236.213 69.8467 236.407 69.58C236.6 69.3067 236.81 69.0833 237.037 68.91C237.317 68.6633 237.643 68.4767 238.017 68.35C238.39 68.2167 238.767 68.14 239.147 68.12C239.527 68.0933 239.873 68.12 240.187 68.2V69.58C239.793 69.48 239.363 69.4567 238.897 69.51C238.43 69.5633 238 69.75 237.607 70.07C237.247 70.35 236.977 70.6867 236.797 71.08C236.617 71.4667 236.497 71.88 236.437 72.32C236.377 72.7533 236.347 73.1833 236.347 73.61V79H234.877ZM246.458 79.3C245.405 79.3 244.492 79.0667 243.718 78.6C242.952 78.1333 242.355 77.4767 241.928 76.63C241.502 75.7833 241.288 74.79 241.288 73.65C241.288 72.47 241.498 71.45 241.918 70.59C242.338 69.73 242.928 69.0667 243.688 68.6C244.455 68.1333 245.358 67.9 246.398 67.9C247.465 67.9 248.375 68.1467 249.128 68.64C249.882 69.1267 250.452 69.8267 250.838 70.74C251.225 71.6533 251.402 72.7433 251.368 74.01H249.868V73.49C249.842 72.09 249.538 71.0333 248.958 70.32C248.385 69.6067 247.545 69.25 246.438 69.25C245.278 69.25 244.388 69.6267 243.768 70.38C243.155 71.1333 242.848 72.2067 242.848 73.6C242.848 74.96 243.155 76.0167 243.768 76.77C244.388 77.5167 245.265 77.89 246.398 77.89C247.172 77.89 247.845 77.7133 248.418 77.36C248.998 77 249.455 76.4833 249.788 75.81L251.158 76.34C250.732 77.28 250.102 78.01 249.268 78.53C248.442 79.0433 247.505 79.3 246.458 79.3ZM242.328 74.01V72.78H250.578V74.01H242.328ZM257.618 79.29C256.351 79.29 255.308 79.0167 254.488 78.47C253.674 77.9233 253.174 77.1633 252.988 76.19L254.488 75.94C254.648 76.5533 255.011 77.0433 255.578 77.41C256.151 77.77 256.858 77.95 257.697 77.95C258.518 77.95 259.164 77.78 259.638 77.44C260.111 77.0933 260.348 76.6233 260.348 76.03C260.348 75.6967 260.271 75.4267 260.118 75.22C259.971 75.0067 259.668 74.81 259.208 74.63C258.748 74.45 258.061 74.2367 257.148 73.99C256.168 73.7233 255.401 73.4567 254.848 73.19C254.294 72.9233 253.901 72.6167 253.668 72.27C253.434 71.9167 253.318 71.4867 253.318 70.98C253.318 70.3667 253.491 69.83 253.838 69.37C254.184 68.9033 254.664 68.5433 255.278 68.29C255.891 68.03 256.604 67.9 257.418 67.9C258.231 67.9 258.958 68.0333 259.598 68.3C260.244 68.56 260.764 68.9267 261.158 69.4C261.551 69.8733 261.784 70.4233 261.858 71.05L260.358 71.32C260.258 70.6867 259.941 70.1867 259.408 69.82C258.881 69.4467 258.211 69.2533 257.398 69.24C256.631 69.22 256.008 69.3667 255.528 69.68C255.048 69.9867 254.808 70.3967 254.808 70.91C254.808 71.1967 254.894 71.4433 255.068 71.65C255.241 71.85 255.554 72.04 256.008 72.22C256.468 72.4 257.121 72.5967 257.968 72.81C258.961 73.0633 259.741 73.33 260.308 73.61C260.874 73.89 261.278 74.22 261.518 74.6C261.758 74.98 261.878 75.45 261.878 76.01C261.878 77.03 261.498 77.8333 260.738 78.42C259.984 79 258.944 79.29 257.618 79.29ZM269.975 79C269.369 79.1267 268.769 79.1767 268.175 79.15C267.589 79.1233 267.062 78.9967 266.595 78.77C266.135 78.5433 265.785 78.19 265.545 77.71C265.352 77.31 265.245 76.9067 265.225 76.5C265.212 76.0867 265.205 75.6167 265.205 75.09V65.2H266.665V75.03C266.665 75.4833 266.669 75.8633 266.675 76.17C266.689 76.47 266.759 76.7367 266.885 76.97C267.125 77.4167 267.505 77.6833 268.025 77.77C268.552 77.8567 269.202 77.8367 269.975 77.71V79ZM262.895 69.46V68.2H269.975V69.46H262.895ZM275.193 79.3C274.38 79.3 273.696 79.1533 273.143 78.86C272.596 78.5667 272.186 78.1767 271.913 77.69C271.64 77.2033 271.503 76.6733 271.503 76.1C271.503 75.5133 271.62 75.0133 271.853 74.6C272.093 74.18 272.416 73.8367 272.823 73.57C273.236 73.3033 273.713 73.1 274.253 72.96C274.8 72.8267 275.403 72.71 276.063 72.61C276.73 72.5033 277.38 72.4133 278.013 72.34C278.653 72.26 279.213 72.1833 279.693 72.11L279.173 72.43C279.193 71.3633 278.986 70.5733 278.553 70.06C278.12 69.5467 277.366 69.29 276.293 69.29C275.553 69.29 274.926 69.4567 274.413 69.79C273.906 70.1233 273.55 70.65 273.343 71.37L271.913 70.95C272.16 69.9833 272.656 69.2333 273.403 68.7C274.15 68.1667 275.12 67.9 276.313 67.9C277.3 67.9 278.136 68.0867 278.823 68.46C279.516 68.8267 280.006 69.36 280.293 70.06C280.426 70.3733 280.513 70.7233 280.553 71.11C280.593 71.4967 280.613 71.89 280.613 72.29V79H279.303V76.29L279.683 76.45C279.316 77.3767 278.746 78.0833 277.973 78.57C277.2 79.0567 276.273 79.3 275.193 79.3ZM275.363 78.03C276.05 78.03 276.65 77.9067 277.163 77.66C277.676 77.4133 278.09 77.0767 278.403 76.65C278.716 76.2167 278.92 75.73 279.013 75.19C279.093 74.8433 279.136 74.4633 279.143 74.05C279.15 73.63 279.153 73.3167 279.153 73.11L279.713 73.4C279.213 73.4667 278.67 73.5333 278.083 73.6C277.503 73.6667 276.93 73.7433 276.363 73.83C275.803 73.9167 275.296 74.02 274.843 74.14C274.536 74.2267 274.24 74.35 273.953 74.51C273.666 74.6633 273.43 74.87 273.243 75.13C273.063 75.39 272.973 75.7133 272.973 76.1C272.973 76.4133 273.05 76.7167 273.203 77.01C273.363 77.3033 273.616 77.5467 273.963 77.74C274.316 77.9333 274.783 78.03 275.363 78.03ZM287.346 79.27C286.7 79.27 286.133 79.17 285.646 78.97C285.166 78.77 284.756 78.5 284.416 78.16C284.083 77.82 283.813 77.4333 283.606 77C283.4 76.56 283.25 76.0967 283.156 75.61C283.063 75.1167 283.016 74.6267 283.016 74.14V68.2H284.496V73.71C284.496 74.3033 284.553 74.8533 284.666 75.36C284.78 75.8667 284.96 76.31 285.206 76.69C285.46 77.0633 285.783 77.3533 286.176 77.56C286.576 77.7667 287.06 77.87 287.626 77.87C288.146 77.87 288.603 77.78 288.996 77.6C289.396 77.42 289.73 77.1633 289.996 76.83C290.27 76.49 290.476 76.08 290.616 75.6C290.756 75.1133 290.826 74.5667 290.826 73.96L291.866 74.19C291.866 75.2967 291.673 76.2267 291.286 76.98C290.9 77.7333 290.366 78.3033 289.686 78.69C289.006 79.0767 288.226 79.27 287.346 79.27ZM290.976 79V76.34H290.826V68.2H292.296V79H290.976ZM295.091 79V68.2H296.411V70.8L296.151 70.46C296.271 70.14 296.428 69.8467 296.621 69.58C296.815 69.3067 297.025 69.0833 297.251 68.91C297.531 68.6633 297.858 68.4767 298.231 68.35C298.605 68.2167 298.981 68.14 299.361 68.12C299.741 68.0933 300.088 68.12 300.401 68.2V69.58C300.008 69.48 299.578 69.4567 299.111 69.51C298.645 69.5633 298.215 69.75 297.821 70.07C297.461 70.35 297.191 70.6867 297.011 71.08C296.831 71.4667 296.711 71.88 296.651 72.32C296.591 72.7533 296.561 73.1833 296.561 73.61V79H295.091ZM304.978 79.3C304.165 79.3 303.482 79.1533 302.928 78.86C302.382 78.5667 301.972 78.1767 301.698 77.69C301.425 77.2033 301.288 76.6733 301.288 76.1C301.288 75.5133 301.405 75.0133 301.638 74.6C301.878 74.18 302.202 73.8367 302.608 73.57C303.022 73.3033 303.498 73.1 304.038 72.96C304.585 72.8267 305.188 72.71 305.848 72.61C306.515 72.5033 307.165 72.4133 307.798 72.34C308.438 72.26 308.998 72.1833 309.478 72.11L308.958 72.43C308.978 71.3633 308.772 70.5733 308.338 70.06C307.905 69.5467 307.152 69.29 306.078 69.29C305.338 69.29 304.712 69.4567 304.198 69.79C303.692 70.1233 303.335 70.65 303.128 71.37L301.698 70.95C301.945 69.9833 302.442 69.2333 303.188 68.7C303.935 68.1667 304.905 67.9 306.098 67.9C307.085 67.9 307.922 68.0867 308.608 68.46C309.302 68.8267 309.792 69.36 310.078 70.06C310.212 70.3733 310.298 70.7233 310.338 71.11C310.378 71.4967 310.398 71.89 310.398 72.29V79H309.088V76.29L309.468 76.45C309.102 77.3767 308.532 78.0833 307.758 78.57C306.985 79.0567 306.058 79.3 304.978 79.3ZM305.148 78.03C305.835 78.03 306.435 77.9067 306.948 77.66C307.462 77.4133 307.875 77.0767 308.188 76.65C308.502 76.2167 308.705 75.73 308.798 75.19C308.878 74.8433 308.922 74.4633 308.928 74.05C308.935 73.63 308.938 73.3167 308.938 73.11L309.498 73.4C308.998 73.4667 308.455 73.5333 307.868 73.6C307.288 73.6667 306.715 73.7433 306.148 73.83C305.588 73.9167 305.082 74.02 304.628 74.14C304.322 74.2267 304.025 74.35 303.738 74.51C303.452 74.6633 303.215 74.87 303.028 75.13C302.848 75.39 302.758 75.7133 302.758 76.1C302.758 76.4133 302.835 76.7167 302.988 77.01C303.148 77.3033 303.402 77.5467 303.748 77.74C304.102 77.9333 304.568 78.03 305.148 78.03ZM320.802 79V73.49C320.802 72.89 320.745 72.34 320.632 71.84C320.518 71.3333 320.335 70.8933 320.082 70.52C319.835 70.14 319.512 69.8467 319.112 69.64C318.718 69.4333 318.238 69.33 317.672 69.33C317.152 69.33 316.692 69.42 316.292 69.6C315.898 69.78 315.565 70.04 315.292 70.38C315.025 70.7133 314.822 71.12 314.682 71.6C314.542 72.08 314.472 72.6267 314.472 73.24L313.432 73.01C313.432 71.9033 313.625 70.9733 314.012 70.22C314.398 69.4667 314.932 68.8967 315.612 68.51C316.292 68.1233 317.072 67.93 317.952 67.93C318.598 67.93 319.162 68.03 319.642 68.23C320.128 68.43 320.538 68.7 320.872 69.04C321.212 69.38 321.485 69.77 321.692 70.21C321.898 70.6433 322.048 71.1067 322.142 71.6C322.235 72.0867 322.282 72.5733 322.282 73.06V79H320.802ZM312.992 79V68.2H314.322V70.86H314.472V79H312.992ZM330.757 79C330.15 79.1267 329.55 79.1767 328.957 79.15C328.37 79.1233 327.843 78.9967 327.377 78.77C326.917 78.5433 326.567 78.19 326.327 77.71C326.133 77.31 326.027 76.9067 326.007 76.5C325.993 76.0867 325.987 75.6167 325.987 75.09V65.2H327.447V75.03C327.447 75.4833 327.45 75.8633 327.457 76.17C327.47 76.47 327.54 76.7367 327.667 76.97C327.907 77.4167 328.287 77.6833 328.807 77.77C329.333 77.8567 329.983 77.8367 330.757 77.71V79ZM323.677 69.46V68.2H330.757V69.46H323.677ZM336.914 79.29C335.648 79.29 334.604 79.0167 333.784 78.47C332.971 77.9233 332.471 77.1633 332.284 76.19L333.784 75.94C333.944 76.5533 334.308 77.0433 334.874 77.41C335.448 77.77 336.154 77.95 336.994 77.95C337.814 77.95 338.461 77.78 338.934 77.44C339.408 77.0933 339.644 76.6233 339.644 76.03C339.644 75.6967 339.568 75.4267 339.414 75.22C339.268 75.0067 338.964 74.81 338.504 74.63C338.044 74.45 337.358 74.2367 336.444 73.99C335.464 73.7233 334.698 73.4567 334.144 73.19C333.591 72.9233 333.198 72.6167 332.964 72.27C332.731 71.9167 332.614 71.4867 332.614 70.98C332.614 70.3667 332.788 69.83 333.134 69.37C333.481 68.9033 333.961 68.5433 334.574 68.29C335.188 68.03 335.901 67.9 336.714 67.9C337.528 67.9 338.254 68.0333 338.894 68.3C339.541 68.56 340.061 68.9267 340.454 69.4C340.848 69.8733 341.081 70.4233 341.154 71.05L339.654 71.32C339.554 70.6867 339.238 70.1867 338.704 69.82C338.178 69.4467 337.508 69.2533 336.694 69.24C335.928 69.22 335.304 69.3667 334.824 69.68C334.344 69.9867 334.104 70.3967 334.104 70.91C334.104 71.1967 334.191 71.4433 334.364 71.65C334.538 71.85 334.851 72.04 335.304 72.22C335.764 72.4 336.418 72.5967 337.264 72.81C338.258 73.0633 339.038 73.33 339.604 73.61C340.171 73.89 340.574 74.22 340.814 74.6C341.054 74.98 341.174 75.45 341.174 76.01C341.174 77.03 340.794 77.8333 340.034 78.42C339.281 79 338.241 79.29 336.914 79.29Z" fill="#010104" fill-opacity="0.85"/>
</g>
<defs>
<filter id="filter0_dddd_68_2214" x="0" y="0" width="431" height="144" filterUnits="userSpaceOnUse" color-interpolation-filters="sRGB">
<feFlood flood-opacity="0" result="BackgroundImageFix"/>
<feColorMatrix in="SourceAlpha" type="matrix" values="0 0 0 0 0 0 0 0 0 0 0 0 0 0 0 0 0 0 127 0" result="hardAlpha"/>
<feOffset dy="2"/>
<feGaussianBlur stdDeviation="1.5"/>
<feColorMatrix type="matrix" values="0 0 0 0 0.211765 0 0 0 0 0.207843 0 0 0 0 0.211765 0 0 0 0.05 0"/>
<feBlend mode="normal" in2="BackgroundImageFix" result="effect1_dropShadow_68_2214"/>
<feColorMatrix in="SourceAlpha" type="matrix" values="0 0 0 0 0 0 0 0 0 0 0 0 0 0 0 0 0 0 127 0" result="hardAlpha"/>
<feOffset dy="6"/>
<feGaussianBlur stdDeviation="3"/>
<feColorMatrix type="matrix" values="0 0 0 0 0.211765 0 0 0 0 0.207843 0 0 0 0 0.211765 0 0 0 0.04 0"/>
<feBlend mode="normal" in2="effect1_dropShadow_68_2214" result="effect2_dropShadow_68_2214"/>
<feColorMatrix in="SourceAlpha" type="matrix" values="0 0 0 0 0 0 0 0 0 0 0 0 0 0 0 0 0 0 127 0" result="hardAlpha"/>
<feOffset dy="14"/>
<feGaussianBlur stdDeviation="4"/>
<feColorMatrix type="matrix" values="0 0 0 0 0.211765 0 0 0 0 0.207843 0 0 0 0 0.211765 0 0 0 0.03 0"/>
<feBlend mode="normal" in2="effect2_dropShadow_68_2214" result="effect3_dropShadow_68_2214"/>
<feColorMatrix in="SourceAlpha" type="matrix" values="0 0 0 0 0 0 0 0 0 0 0 0 0 0 0 0 0 0 127 0" result="hardAlpha"/>
<feOffset dy="25"/>
<feGaussianBlur stdDeviation="5"/>
<feColorMatrix type="matrix" values="0 0 0 0 0.211765 0 0 0 0 0.207843 0 0 0 0 0.211765 0 0 0 0.01 0"/>
<feBlend mode="normal" in2="effect3_dropShadow_68_2214" result="effect4_dropShadow_68_2214"/>
<feBlend mode="normal" in="SourceGraphic" in2="effect4_dropShadow_68_2214" result="shape"/>
</filter>
</defs>
</svg>
