<svg width="647" height="216" viewBox="0 0 647 216" fill="none" xmlns="http://www.w3.org/2000/svg">
<g filter="url(#filter0_dddd_79_1983)">
<rect x="15" y="1.5" width="616.5" height="162" rx="36" fill="white"/>
<rect x="24" y="10.5" width="144" height="144" rx="27" fill="#059669" fill-opacity="0.1"/>
<path d="M123.735 82.4997C123.735 80.8631 123.323 79.2535 122.537 77.8181C121.751 76.3825 120.617 75.1665 119.238 74.2849C118.44 73.7747 118.049 72.8208 118.256 71.8972C118.617 70.2929 118.565 68.622 118.107 67.0427C117.649 65.4636 116.8 64.0246 115.637 62.862C114.475 61.6995 113.036 60.85 111.457 60.3923C109.878 59.9347 108.209 59.8854 106.605 60.2458C105.681 60.4535 104.724 60.0593 104.214 59.2614C103.333 57.8831 102.119 56.7485 100.684 55.9626C99.2485 55.1766 97.6362 54.7643 95.9995 54.7643C94.3631 54.7644 92.7532 55.1767 91.3179 55.9626C89.8823 56.7486 88.6663 57.8825 87.7847 59.2614C87.2748 60.0588 86.3205 60.4528 85.397 60.2458C83.7954 59.8869 82.1278 59.9386 80.5513 60.3952C78.9751 60.852 77.5381 61.6999 76.3765 62.8591C75.2151 64.0184 74.3665 65.4528 73.9067 67.028C73.4468 68.6038 73.3898 70.2712 73.7456 71.8737C73.9506 72.7994 73.5537 73.7543 72.7524 74.2614C71.3634 75.1406 70.2202 76.3575 69.4272 77.7975C68.6342 79.2379 68.2173 80.8554 68.2173 82.4997C68.2173 84.144 68.6342 85.7614 69.4272 87.2018C70.2201 88.642 71.3634 89.8587 72.7524 90.738C73.554 91.2453 73.9512 92.2025 73.7456 93.1286C73.3902 94.7306 73.4471 96.3961 73.9067 97.9714C74.3667 99.5472 75.2145 100.984 76.3765 102.143C77.5383 103.303 78.9748 104.15 80.5513 104.607C82.1279 105.064 83.7953 105.113 85.397 104.754C86.3219 104.546 87.2783 104.942 87.7876 105.741C88.6681 107.125 89.8857 108.265 91.3237 109.054C92.7614 109.844 94.3741 110.258 96.0142 110.258C97.6547 110.258 99.2695 109.844 100.708 109.054C102.145 108.265 103.36 107.125 104.241 105.741C104.749 104.943 105.704 104.548 106.628 104.754C108.23 105.109 109.896 105.055 111.471 104.595C113.047 104.135 114.483 103.285 115.643 102.123C116.803 100.961 117.65 99.5246 118.107 97.9479C118.564 96.3711 118.613 94.7041 118.253 93.1022C118.046 92.1788 118.441 91.2244 119.238 90.7145C120.617 89.8329 121.751 88.6169 122.537 87.1813C123.322 85.7459 123.735 84.1362 123.735 82.4997ZM103.409 71.9089C104.287 71.0303 105.712 71.0306 106.59 71.9089C107.469 72.7876 107.469 74.2118 106.59 75.0905L88.5903 93.0905C87.7116 93.9691 86.2873 93.9691 85.4087 93.0905C84.5305 92.2119 84.5303 90.7874 85.4087 89.9089L103.409 71.9089ZM105.029 89.2497C106.271 89.2497 107.279 90.2572 107.279 91.4997C107.279 92.7423 106.271 93.7497 105.029 93.7497H105C103.757 93.7494 102.75 92.7421 102.75 91.4997C102.75 90.2574 103.757 89.25 105 89.2497H105.029ZM87.0288 71.2497C88.2714 71.2497 89.2787 72.2572 89.2788 73.4997C89.2788 74.7423 88.2714 75.7497 87.0288 75.7497H86.9995C85.7571 75.7494 84.7495 74.7421 84.7495 73.4997C84.7497 72.2574 85.7572 71.25 86.9995 71.2497H87.0288ZM128.235 82.4997C128.235 84.8915 127.634 87.2455 126.486 89.3434C125.581 90.9962 124.354 92.443 122.891 93.6149C123.105 95.4843 122.954 97.382 122.428 99.1989C121.761 101.503 120.522 103.603 118.828 105.301C117.133 107 115.037 108.242 112.734 108.914C110.918 109.444 109.02 109.599 107.15 109.388C105.978 110.858 104.529 112.091 102.873 113.001C100.771 114.154 98.4115 114.758 96.0142 114.758C93.6168 114.758 91.2572 114.154 89.1558 113.001C87.4998 112.091 86.0501 110.86 84.8784 109.391C83.0111 109.604 81.1152 109.454 79.3003 108.928C76.9959 108.261 74.896 107.022 73.1978 105.328C71.4998 103.633 70.2577 101.537 69.5854 99.2341C69.0557 97.4192 68.8983 95.5219 69.1079 93.653C67.6333 92.4817 66.397 91.0313 65.4839 89.3727C64.3248 87.2675 63.7173 84.9029 63.7173 82.4997C63.7173 80.0965 64.3248 77.7319 65.4839 75.6266C66.3974 73.9676 67.6326 72.515 69.1079 71.3434C68.8989 69.4757 69.056 67.5791 69.5854 65.7653C70.2577 63.4627 71.4998 61.366 73.1978 59.6716C74.896 57.9769 76.9958 56.7384 79.3003 56.071C81.116 55.5451 83.0132 55.3918 84.8813 55.6052C86.0531 54.1429 87.5035 52.9211 89.1558 52.0163C91.2537 50.8676 93.6077 50.2644 95.9995 50.2643C98.3916 50.2643 100.745 50.8675 102.843 52.0163C104.495 52.9207 105.943 54.1435 107.115 55.6052C108.988 55.3898 110.89 55.5434 112.71 56.071C115.018 56.74 117.12 57.9814 118.819 59.6804C120.518 61.3797 121.759 63.4834 122.428 65.7917C122.955 67.6105 123.109 69.5102 122.894 71.3815C124.357 72.5535 125.581 74.0032 126.486 75.6559C127.635 77.7539 128.235 80.1078 128.235 82.4997Z" fill="#059669"/>
<path d="M197.52 74V48.08H202.488L213.756 65.36V48.08H218.724V74H213.756L202.488 56.72V74H197.52ZM232.423 74.54C230.431 74.54 228.673 74.114 227.149 73.262C225.637 72.398 224.449 71.216 223.585 69.716C222.733 68.204 222.307 66.476 222.307 64.532C222.307 62.408 222.727 60.56 223.567 58.988C224.407 57.416 225.565 56.198 227.041 55.334C228.517 54.458 230.215 54.02 232.135 54.02C234.175 54.02 235.909 54.5 237.337 55.46C238.765 56.42 239.821 57.77 240.505 59.51C241.189 61.25 241.429 63.296 241.225 65.648H236.383V63.848C236.383 61.868 236.065 60.446 235.429 59.582C234.805 58.706 233.779 58.268 232.351 58.268C230.683 58.268 229.453 58.778 228.661 59.798C227.881 60.806 227.491 62.3 227.491 64.28C227.491 66.092 227.881 67.496 228.661 68.492C229.453 69.476 230.611 69.968 232.135 69.968C233.095 69.968 233.917 69.758 234.601 69.338C235.285 68.918 235.807 68.312 236.167 67.52L241.063 68.924C240.331 70.7 239.173 72.08 237.589 73.064C236.017 74.048 234.295 74.54 232.423 74.54ZM225.979 65.648V62.012H238.867V65.648H225.979ZM248.366 74L242.426 54.524L247.214 54.56L250.742 66.152L254.324 54.56H258.392L261.974 66.152L265.502 54.56H270.29L264.35 74H260.606L256.358 61.328L252.11 74H248.366ZM288.601 74.54C286.585 74.54 284.857 74.09 283.417 73.19C281.977 72.29 280.873 71.066 280.105 69.518C279.337 67.97 278.953 66.224 278.953 64.28C278.953 62.312 279.349 60.554 280.141 59.006C280.945 57.458 282.073 56.24 283.525 55.352C284.977 54.464 286.693 54.02 288.673 54.02C290.965 54.02 292.885 54.602 294.433 55.766C295.993 56.918 296.989 58.496 297.421 60.5L292.525 61.796C292.237 60.788 291.733 60.002 291.013 59.438C290.305 58.874 289.501 58.592 288.601 58.592C287.569 58.592 286.723 58.844 286.063 59.348C285.403 59.84 284.917 60.518 284.605 61.382C284.293 62.234 284.137 63.2 284.137 64.28C284.137 65.972 284.509 67.346 285.253 68.402C286.009 69.446 287.125 69.968 288.601 69.968C289.705 69.968 290.545 69.716 291.121 69.212C291.697 68.708 292.129 67.988 292.417 67.052L297.421 68.096C296.869 70.16 295.825 71.75 294.289 72.866C292.753 73.982 290.857 74.54 288.601 74.54ZM305.71 74.54C304.318 74.54 303.136 74.276 302.164 73.748C301.204 73.208 300.472 72.494 299.968 71.606C299.476 70.706 299.23 69.716 299.23 68.636C299.23 67.736 299.368 66.914 299.644 66.17C299.92 65.426 300.364 64.772 300.976 64.208C301.6 63.632 302.434 63.152 303.478 62.768C304.198 62.504 305.056 62.27 306.052 62.066C307.048 61.862 308.176 61.67 309.436 61.49C310.696 61.298 312.082 61.088 313.594 60.86L311.83 61.832C311.83 60.68 311.554 59.834 311.002 59.294C310.45 58.754 309.526 58.484 308.23 58.484C307.51 58.484 306.76 58.658 305.98 59.006C305.2 59.354 304.654 59.972 304.342 60.86L299.914 59.456C300.406 57.848 301.33 56.54 302.686 55.532C304.042 54.524 305.89 54.02 308.23 54.02C309.946 54.02 311.47 54.284 312.802 54.812C314.134 55.34 315.142 56.252 315.826 57.548C316.21 58.268 316.438 58.988 316.51 59.708C316.582 60.428 316.618 61.232 316.618 62.12V74H312.334V70.004L312.946 70.832C311.998 72.14 310.972 73.088 309.868 73.676C308.776 74.252 307.39 74.54 305.71 74.54ZM306.754 70.688C307.654 70.688 308.41 70.532 309.022 70.22C309.646 69.896 310.138 69.53 310.498 69.122C310.87 68.714 311.122 68.372 311.254 68.096C311.506 67.568 311.65 66.956 311.686 66.26C311.734 65.552 311.758 64.964 311.758 64.496L313.198 64.856C311.746 65.096 310.57 65.3 309.67 65.468C308.77 65.624 308.044 65.768 307.492 65.9C306.94 66.032 306.454 66.176 306.034 66.332C305.554 66.524 305.164 66.734 304.864 66.962C304.576 67.178 304.36 67.418 304.216 67.682C304.084 67.946 304.018 68.24 304.018 68.564C304.018 69.008 304.126 69.392 304.342 69.716C304.57 70.028 304.888 70.268 305.296 70.436C305.704 70.604 306.19 70.688 306.754 70.688ZM344.338 74V62.516C344.338 61.232 344.032 60.236 343.42 59.528C342.82 58.808 341.986 58.448 340.918 58.448C340.234 58.448 339.64 58.61 339.136 58.934C338.632 59.246 338.236 59.69 337.948 60.266C337.672 60.83 337.534 61.484 337.534 62.228L335.482 60.86C335.482 59.528 335.794 58.352 336.418 57.332C337.054 56.312 337.9 55.52 338.956 54.956C340.024 54.38 341.206 54.092 342.502 54.092C344.722 54.092 346.396 54.752 347.524 56.072C348.664 57.38 349.234 59.096 349.234 61.22V74H344.338ZM320.902 74V54.56H325.222V61.004H325.834V74H320.902ZM332.638 74V62.516C332.638 61.232 332.332 60.236 331.72 59.528C331.12 58.808 330.286 58.448 329.218 58.448C328.198 58.448 327.376 58.802 326.752 59.51C326.14 60.206 325.834 61.112 325.834 62.228L323.782 60.788C323.782 59.516 324.1 58.376 324.736 57.368C325.372 56.36 326.224 55.562 327.292 54.974C328.372 54.386 329.578 54.092 330.91 54.092C332.434 54.092 333.682 54.416 334.654 55.064C335.638 55.712 336.364 56.576 336.832 57.656C337.3 58.736 337.534 59.924 337.534 61.22V74H332.638ZM363.095 74.54C361.163 74.54 359.549 74.09 358.253 73.19C356.957 72.29 355.979 71.066 355.319 69.518C354.671 67.97 354.347 66.224 354.347 64.28C354.347 62.336 354.671 60.59 355.319 59.042C355.967 57.494 356.921 56.27 358.181 55.37C359.441 54.47 360.995 54.02 362.843 54.02C364.703 54.02 366.323 54.464 367.703 55.352C369.083 56.24 370.151 57.458 370.907 59.006C371.675 60.542 372.059 62.3 372.059 64.28C372.059 66.224 371.681 67.97 370.925 69.518C370.181 71.066 369.137 72.29 367.793 73.19C366.449 74.09 364.883 74.54 363.095 74.54ZM353.519 82.64V54.56H357.839V67.88H358.451V82.64H353.519ZM362.303 70.184C363.359 70.184 364.223 69.92 364.895 69.392C365.567 68.864 366.065 68.156 366.389 67.268C366.713 66.368 366.875 65.372 366.875 64.28C366.875 63.2 366.707 62.216 366.371 61.328C366.035 60.428 365.513 59.714 364.805 59.186C364.109 58.646 363.215 58.376 362.123 58.376C361.103 58.376 360.275 58.622 359.639 59.114C359.015 59.606 358.559 60.296 358.271 61.184C357.983 62.072 357.839 63.104 357.839 64.28C357.839 65.456 357.983 66.488 358.271 67.376C358.559 68.264 359.027 68.954 359.675 69.446C360.335 69.938 361.211 70.184 362.303 70.184ZM381.06 74.54C379.668 74.54 378.486 74.276 377.514 73.748C376.554 73.208 375.822 72.494 375.318 71.606C374.826 70.706 374.58 69.716 374.58 68.636C374.58 67.736 374.718 66.914 374.994 66.17C375.27 65.426 375.714 64.772 376.326 64.208C376.95 63.632 377.784 63.152 378.828 62.768C379.548 62.504 380.406 62.27 381.402 62.066C382.398 61.862 383.526 61.67 384.786 61.49C386.046 61.298 387.432 61.088 388.944 60.86L387.18 61.832C387.18 60.68 386.904 59.834 386.352 59.294C385.8 58.754 384.876 58.484 383.58 58.484C382.86 58.484 382.11 58.658 381.33 59.006C380.55 59.354 380.004 59.972 379.692 60.86L375.264 59.456C375.756 57.848 376.68 56.54 378.036 55.532C379.392 54.524 381.24 54.02 383.58 54.02C385.296 54.02 386.82 54.284 388.152 54.812C389.484 55.34 390.492 56.252 391.176 57.548C391.56 58.268 391.788 58.988 391.86 59.708C391.932 60.428 391.968 61.232 391.968 62.12V74H387.684V70.004L388.296 70.832C387.348 72.14 386.322 73.088 385.218 73.676C384.126 74.252 382.74 74.54 381.06 74.54ZM382.104 70.688C383.004 70.688 383.76 70.532 384.372 70.22C384.996 69.896 385.488 69.53 385.848 69.122C386.22 68.714 386.472 68.372 386.604 68.096C386.856 67.568 387 66.956 387.036 66.26C387.084 65.552 387.108 64.964 387.108 64.496L388.548 64.856C387.096 65.096 385.92 65.3 385.02 65.468C384.12 65.624 383.394 65.768 382.842 65.9C382.29 66.032 381.804 66.176 381.384 66.332C380.904 66.524 380.514 66.734 380.214 66.962C379.926 67.178 379.71 67.418 379.566 67.682C379.434 67.946 379.368 68.24 379.368 68.564C379.368 69.008 379.476 69.392 379.692 69.716C379.92 70.028 380.238 70.268 380.646 70.436C381.054 70.604 381.54 70.688 382.104 70.688ZM396.648 51.86V47.54H401.544V51.86H396.648ZM396.648 74V54.56H401.544V74H396.648ZM414.896 83.18C413.792 83.18 412.742 83 411.746 82.64C410.75 82.292 409.856 81.8 409.064 81.164C408.284 80.54 407.648 79.808 407.156 78.968L411.692 76.772C412.004 77.348 412.448 77.786 413.024 78.086C413.612 78.386 414.248 78.536 414.932 78.536C415.664 78.536 416.354 78.41 417.002 78.158C417.65 77.918 418.166 77.552 418.55 77.06C418.946 76.58 419.132 75.98 419.108 75.26V69.608H419.72V54.56H424.004V75.332C424.004 75.812 423.98 76.262 423.932 76.682C423.896 77.114 423.824 77.54 423.716 77.96C423.404 79.148 422.822 80.126 421.97 80.894C421.13 81.662 420.098 82.232 418.874 82.604C417.65 82.988 416.324 83.18 414.896 83.18ZM414.464 74.54C412.676 74.54 411.11 74.09 409.766 73.19C408.422 72.29 407.372 71.066 406.616 69.518C405.872 67.97 405.5 66.224 405.5 64.28C405.5 62.3 405.878 60.542 406.634 59.006C407.402 57.458 408.476 56.24 409.856 55.352C411.236 54.464 412.856 54.02 414.716 54.02C416.564 54.02 418.118 54.47 419.378 55.37C420.638 56.27 421.592 57.494 422.24 59.042C422.888 60.59 423.212 62.336 423.212 64.28C423.212 66.224 422.882 67.97 422.222 69.518C421.574 71.066 420.602 72.29 419.306 73.19C418.01 74.09 416.396 74.54 414.464 74.54ZM415.256 70.184C416.348 70.184 417.218 69.938 417.866 69.446C418.526 68.954 419 68.264 419.288 67.376C419.576 66.488 419.72 65.456 419.72 64.28C419.72 63.104 419.576 62.072 419.288 61.184C419 60.296 418.538 59.606 417.902 59.114C417.278 58.622 416.456 58.376 415.436 58.376C414.344 58.376 413.444 58.646 412.736 59.186C412.04 59.714 411.524 60.428 411.188 61.328C410.852 62.216 410.684 63.2 410.684 64.28C410.684 65.372 410.846 66.368 411.17 67.268C411.494 68.156 411.992 68.864 412.664 69.392C413.336 69.92 414.2 70.184 415.256 70.184ZM441.933 74V64.82C441.933 64.376 441.909 63.812 441.861 63.128C441.813 62.432 441.663 61.736 441.411 61.04C441.159 60.344 440.745 59.762 440.169 59.294C439.605 58.826 438.801 58.592 437.757 58.592C437.337 58.592 436.887 58.658 436.407 58.79C435.927 58.922 435.477 59.18 435.057 59.564C434.637 59.936 434.289 60.488 434.013 61.22C433.749 61.952 433.617 62.924 433.617 64.136L430.809 62.804C430.809 61.268 431.121 59.828 431.745 58.484C432.369 57.14 433.305 56.054 434.553 55.226C435.813 54.398 437.397 53.984 439.305 53.984C440.829 53.984 442.071 54.242 443.031 54.758C443.991 55.274 444.735 55.928 445.263 56.72C445.803 57.512 446.187 58.34 446.415 59.204C446.643 60.056 446.781 60.836 446.829 61.544C446.877 62.252 446.901 62.768 446.901 63.092V74H441.933ZM428.649 74V54.56H433.005V61.004H433.617V74H428.649ZM458.419 74V47.54H463.315V74H458.419ZM473.751 74.54C472.359 74.54 471.177 74.276 470.205 73.748C469.245 73.208 468.513 72.494 468.009 71.606C467.517 70.706 467.271 69.716 467.271 68.636C467.271 67.736 467.409 66.914 467.685 66.17C467.961 65.426 468.405 64.772 469.017 64.208C469.641 63.632 470.475 63.152 471.519 62.768C472.239 62.504 473.097 62.27 474.093 62.066C475.089 61.862 476.217 61.67 477.477 61.49C478.737 61.298 480.123 61.088 481.635 60.86L479.871 61.832C479.871 60.68 479.595 59.834 479.043 59.294C478.491 58.754 477.567 58.484 476.271 58.484C475.551 58.484 474.801 58.658 474.021 59.006C473.241 59.354 472.695 59.972 472.383 60.86L467.955 59.456C468.447 57.848 469.371 56.54 470.727 55.532C472.083 54.524 473.931 54.02 476.271 54.02C477.987 54.02 479.511 54.284 480.843 54.812C482.175 55.34 483.183 56.252 483.867 57.548C484.251 58.268 484.479 58.988 484.551 59.708C484.623 60.428 484.659 61.232 484.659 62.12V74H480.375V70.004L480.987 70.832C480.039 72.14 479.013 73.088 477.909 73.676C476.817 74.252 475.431 74.54 473.751 74.54ZM474.795 70.688C475.695 70.688 476.451 70.532 477.063 70.22C477.687 69.896 478.179 69.53 478.539 69.122C478.911 68.714 479.163 68.372 479.295 68.096C479.547 67.568 479.691 66.956 479.727 66.26C479.775 65.552 479.799 64.964 479.799 64.496L481.239 64.856C479.787 65.096 478.611 65.3 477.711 65.468C476.811 65.624 476.085 65.768 475.533 65.9C474.981 66.032 474.495 66.176 474.075 66.332C473.595 66.524 473.205 66.734 472.905 66.962C472.617 67.178 472.401 67.418 472.257 67.682C472.125 67.946 472.059 68.24 472.059 68.564C472.059 69.008 472.167 69.392 472.383 69.716C472.611 70.028 472.929 70.268 473.337 70.436C473.745 70.604 474.231 70.688 474.795 70.688ZM496.215 74.576C494.691 74.576 493.449 74.318 492.489 73.802C491.529 73.286 490.779 72.632 490.239 71.84C489.711 71.048 489.333 70.226 489.105 69.374C488.877 68.51 488.739 67.724 488.691 67.016C488.643 66.308 488.619 65.792 488.619 65.468V54.56H493.587V63.74C493.587 64.184 493.611 64.754 493.659 65.45C493.707 66.134 493.857 66.824 494.109 67.52C494.361 68.216 494.769 68.798 495.333 69.266C495.909 69.734 496.719 69.968 497.763 69.968C498.183 69.968 498.633 69.902 499.113 69.77C499.593 69.638 500.043 69.386 500.463 69.014C500.883 68.63 501.225 68.072 501.489 67.34C501.765 66.596 501.903 65.624 501.903 64.424L504.711 65.756C504.711 67.292 504.399 68.732 503.775 70.076C503.151 71.42 502.209 72.506 500.949 73.334C499.701 74.162 498.123 74.576 496.215 74.576ZM502.515 74V67.556H501.903V54.56H506.835V74H502.515ZM524.754 74V64.82C524.754 64.376 524.73 63.812 524.682 63.128C524.634 62.432 524.484 61.736 524.232 61.04C523.98 60.344 523.566 59.762 522.99 59.294C522.426 58.826 521.622 58.592 520.578 58.592C520.158 58.592 519.708 58.658 519.228 58.79C518.748 58.922 518.298 59.18 517.878 59.564C517.458 59.936 517.11 60.488 516.834 61.22C516.57 61.952 516.438 62.924 516.438 64.136L513.63 62.804C513.63 61.268 513.942 59.828 514.566 58.484C515.19 57.14 516.126 56.054 517.374 55.226C518.634 54.398 520.218 53.984 522.126 53.984C523.65 53.984 524.892 54.242 525.852 54.758C526.812 55.274 527.556 55.928 528.084 56.72C528.624 57.512 529.008 58.34 529.236 59.204C529.464 60.056 529.602 60.836 529.65 61.544C529.698 62.252 529.722 62.768 529.722 63.092V74H524.754ZM511.47 74V54.56H515.826V61.004H516.438V74H511.47ZM542.249 74.54C540.233 74.54 538.505 74.09 537.065 73.19C535.625 72.29 534.521 71.066 533.753 69.518C532.985 67.97 532.601 66.224 532.601 64.28C532.601 62.312 532.997 60.554 533.789 59.006C534.593 57.458 535.721 56.24 537.173 55.352C538.625 54.464 540.341 54.02 542.321 54.02C544.613 54.02 546.533 54.602 548.081 55.766C549.641 56.918 550.637 58.496 551.069 60.5L546.173 61.796C545.885 60.788 545.381 60.002 544.661 59.438C543.953 58.874 543.149 58.592 542.249 58.592C541.217 58.592 540.371 58.844 539.711 59.348C539.051 59.84 538.565 60.518 538.253 61.382C537.941 62.234 537.785 63.2 537.785 64.28C537.785 65.972 538.157 67.346 538.901 68.402C539.657 69.446 540.773 69.968 542.249 69.968C543.353 69.968 544.193 69.716 544.769 69.212C545.345 68.708 545.777 67.988 546.065 67.052L551.069 68.096C550.517 70.16 549.473 71.75 547.937 72.866C546.401 73.982 544.505 74.54 542.249 74.54ZM567.558 74V64.82C567.558 64.376 567.534 63.812 567.486 63.128C567.438 62.432 567.288 61.736 567.036 61.04C566.784 60.344 566.37 59.762 565.794 59.294C565.23 58.826 564.426 58.592 563.382 58.592C562.962 58.592 562.512 58.658 562.032 58.79C561.552 58.922 561.102 59.18 560.682 59.564C560.262 59.936 559.914 60.488 559.638 61.22C559.374 61.952 559.242 62.924 559.242 64.136L556.434 62.804C556.434 61.268 556.746 59.828 557.37 58.484C557.994 57.14 558.93 56.054 560.178 55.226C561.438 54.398 563.022 53.984 564.93 53.984C566.454 53.984 567.696 54.242 568.656 54.758C569.616 55.274 570.36 55.928 570.888 56.72C571.428 57.512 571.812 58.34 572.04 59.204C572.268 60.056 572.406 60.836 572.454 61.544C572.502 62.252 572.526 62.768 572.526 63.092V74H567.558ZM554.274 74V48.08H558.63V61.4H559.242V74H554.274Z" fill="#010104" fill-opacity="0.85"/>
<path d="M202.59 118L195.15 96.4H197.445L204.03 115.495L210.66 96.4H212.955L205.515 118H202.59ZM214.92 98.725V96.25H217.125V98.725H214.92ZM214.92 118V101.8H217.125V118H214.92ZM228.476 118.45C226.896 118.45 225.526 118.1 224.366 117.4C223.216 116.7 222.321 115.715 221.681 114.445C221.041 113.175 220.721 111.685 220.721 109.975C220.721 108.205 221.036 106.675 221.666 105.385C222.296 104.095 223.181 103.1 224.321 102.4C225.471 101.7 226.826 101.35 228.386 101.35C229.986 101.35 231.351 101.72 232.481 102.46C233.611 103.19 234.466 104.24 235.046 105.61C235.626 106.98 235.891 108.615 235.841 110.515H233.591V109.735C233.551 107.635 233.096 106.05 232.226 104.98C231.366 103.91 230.106 103.375 228.446 103.375C226.706 103.375 225.371 103.94 224.441 105.07C223.521 106.2 223.061 107.81 223.061 109.9C223.061 111.94 223.521 113.525 224.441 114.655C225.371 115.775 226.686 116.335 228.386 116.335C229.546 116.335 230.556 116.07 231.416 115.54C232.286 115 232.971 114.225 233.471 113.215L235.526 114.01C234.886 115.42 233.941 116.515 232.691 117.295C231.451 118.065 230.046 118.45 228.476 118.45ZM222.281 110.515V108.67H234.656V110.515H222.281ZM242.034 118L237.084 101.785L239.289 101.8L243.129 114.385L246.984 101.8H248.994L252.849 114.385L256.719 101.8H258.909L253.959 118H252.039L247.989 105.1L243.954 118H242.034ZM273.903 118.45C272.393 118.45 271.103 118.075 270.033 117.325C268.963 116.565 268.143 115.54 267.573 114.25C267.003 112.96 266.718 111.505 266.718 109.885C266.718 108.275 266.998 106.825 267.558 105.535C268.128 104.245 268.943 103.225 270.003 102.475C271.063 101.725 272.333 101.35 273.813 101.35C275.333 101.35 276.613 101.72 277.653 102.46C278.693 103.2 279.478 104.215 280.008 105.505C280.548 106.785 280.818 108.245 280.818 109.885C280.818 111.495 280.553 112.95 280.023 114.25C279.493 115.54 278.713 116.565 277.683 117.325C276.653 118.075 275.393 118.45 273.903 118.45ZM274.128 116.395C275.278 116.395 276.228 116.115 276.978 115.555C277.728 114.995 278.288 114.225 278.658 113.245C279.028 112.255 279.213 111.135 279.213 109.885C279.213 108.615 279.028 107.495 278.658 106.525C278.288 105.545 277.728 104.78 276.978 104.23C276.238 103.68 275.303 103.405 274.173 103.405C273.013 103.405 272.053 103.69 271.293 104.26C270.533 104.83 269.968 105.605 269.598 106.585C269.238 107.565 269.058 108.665 269.058 109.885C269.058 111.115 269.243 112.225 269.613 113.215C269.993 114.195 270.558 114.97 271.308 115.54C272.058 116.11 272.998 116.395 274.128 116.395ZM279.213 118V105.805H278.973V96.4H281.193V118H279.213ZM292.256 118.45C290.676 118.45 289.306 118.1 288.146 117.4C286.996 116.7 286.101 115.715 285.461 114.445C284.821 113.175 284.501 111.685 284.501 109.975C284.501 108.205 284.816 106.675 285.446 105.385C286.076 104.095 286.961 103.1 288.101 102.4C289.251 101.7 290.606 101.35 292.166 101.35C293.766 101.35 295.131 101.72 296.261 102.46C297.391 103.19 298.246 104.24 298.826 105.61C299.406 106.98 299.671 108.615 299.621 110.515H297.371V109.735C297.331 107.635 296.876 106.05 296.006 104.98C295.146 103.91 293.886 103.375 292.226 103.375C290.486 103.375 289.151 103.94 288.221 105.07C287.301 106.2 286.841 107.81 286.841 109.9C286.841 111.94 287.301 113.525 288.221 114.655C289.151 115.775 290.466 116.335 292.166 116.335C293.326 116.335 294.336 116.07 295.196 115.54C296.066 115 296.751 114.225 297.251 113.215L299.306 114.01C298.666 115.42 297.721 116.515 296.471 117.295C295.231 118.065 293.826 118.45 292.256 118.45ZM286.061 110.515V108.67H298.436V110.515H286.061ZM311.77 118C310.86 118.19 309.96 118.265 309.07 118.225C308.19 118.185 307.4 117.995 306.7 117.655C306.01 117.315 305.485 116.785 305.125 116.065C304.835 115.465 304.675 114.86 304.645 114.25C304.625 113.63 304.615 112.925 304.615 112.135V97.3H306.805V112.045C306.805 112.725 306.81 113.295 306.82 113.755C306.84 114.205 306.945 114.605 307.135 114.955C307.495 115.625 308.065 116.025 308.845 116.155C309.635 116.285 310.61 116.255 311.77 116.065V118ZM301.15 103.69V101.8H311.77V103.69H301.15ZM319.596 118.45C318.376 118.45 317.351 118.23 316.521 117.79C315.701 117.35 315.086 116.765 314.676 116.035C314.266 115.305 314.061 114.51 314.061 113.65C314.061 112.77 314.236 112.02 314.586 111.4C314.946 110.77 315.431 110.255 316.041 109.855C316.661 109.455 317.376 109.15 318.186 108.94C319.006 108.74 319.911 108.565 320.901 108.415C321.901 108.255 322.876 108.12 323.826 108.01C324.786 107.89 325.626 107.775 326.346 107.665L325.566 108.145C325.596 106.545 325.286 105.36 324.636 104.59C323.986 103.82 322.856 103.435 321.246 103.435C320.136 103.435 319.196 103.685 318.426 104.185C317.666 104.685 317.131 105.475 316.821 106.555L314.676 105.925C315.046 104.475 315.791 103.35 316.911 102.55C318.031 101.75 319.486 101.35 321.276 101.35C322.756 101.35 324.011 101.63 325.041 102.19C326.081 102.74 326.816 103.54 327.246 104.59C327.446 105.06 327.576 105.585 327.636 106.165C327.696 106.745 327.726 107.335 327.726 107.935V118H325.761V113.935L326.331 114.175C325.781 115.565 324.926 116.625 323.766 117.355C322.606 118.085 321.216 118.45 319.596 118.45ZM319.851 116.545C320.881 116.545 321.781 116.36 322.551 115.99C323.321 115.62 323.941 115.115 324.411 114.475C324.881 113.825 325.186 113.095 325.326 112.285C325.446 111.765 325.511 111.195 325.521 110.575C325.531 109.945 325.536 109.475 325.536 109.165L326.376 109.6C325.626 109.7 324.811 109.8 323.931 109.9C323.061 110 322.201 110.115 321.351 110.245C320.511 110.375 319.751 110.53 319.071 110.71C318.611 110.84 318.166 111.025 317.736 111.265C317.306 111.495 316.951 111.805 316.671 112.195C316.401 112.585 316.266 113.07 316.266 113.65C316.266 114.12 316.381 114.575 316.611 115.015C316.851 115.455 317.231 115.82 317.751 116.11C318.281 116.4 318.981 116.545 319.851 116.545ZM331.931 98.725V96.25H334.136V98.725H331.931ZM331.931 118V101.8H334.136V118H331.931ZM338.933 118V95.95H341.138V118H338.933ZM351.68 118.435C349.78 118.435 348.215 118.025 346.985 117.205C345.765 116.385 345.015 115.245 344.735 113.785L346.985 113.41C347.225 114.33 347.77 115.065 348.62 115.615C349.48 116.155 350.54 116.425 351.8 116.425C353.03 116.425 354 116.17 354.71 115.66C355.42 115.14 355.775 114.435 355.775 113.545C355.775 113.045 355.66 112.64 355.43 112.33C355.21 112.01 354.755 111.715 354.065 111.445C353.375 111.175 352.345 110.855 350.975 110.485C349.505 110.085 348.355 109.685 347.525 109.285C346.695 108.885 346.105 108.425 345.755 107.905C345.405 107.375 345.23 106.73 345.23 105.97C345.23 105.05 345.49 104.245 346.01 103.555C346.53 102.855 347.25 102.315 348.17 101.935C349.09 101.545 350.16 101.35 351.38 101.35C352.6 101.35 353.69 101.55 354.65 101.95C355.62 102.34 356.4 102.89 356.99 103.6C357.58 104.31 357.93 105.135 358.04 106.075L355.79 106.48C355.64 105.53 355.165 104.78 354.365 104.23C353.575 103.67 352.57 103.38 351.35 103.36C350.2 103.33 349.265 103.55 348.545 104.02C347.825 104.48 347.465 105.095 347.465 105.865C347.465 106.295 347.595 106.665 347.855 106.975C348.115 107.275 348.585 107.56 349.265 107.83C349.955 108.1 350.935 108.395 352.205 108.715C353.695 109.095 354.865 109.495 355.715 109.915C356.565 110.335 357.17 110.83 357.53 111.4C357.89 111.97 358.07 112.675 358.07 113.515C358.07 115.045 357.5 116.25 356.36 117.13C355.23 118 353.67 118.435 351.68 118.435Z" fill="#010104" fill-opacity="0.85"/>
</g>
<defs>
<filter id="filter0_dddd_79_1983" x="0" y="0" width="646.5" height="216" filterUnits="userSpaceOnUse" color-interpolation-filters="sRGB">
<feFlood flood-opacity="0" result="BackgroundImageFix"/>
<feColorMatrix in="SourceAlpha" type="matrix" values="0 0 0 0 0 0 0 0 0 0 0 0 0 0 0 0 0 0 127 0" result="hardAlpha"/>
<feOffset dy="3"/>
<feGaussianBlur stdDeviation="2.25"/>
<feColorMatrix type="matrix" values="0 0 0 0 0.211765 0 0 0 0 0.207843 0 0 0 0 0.211765 0 0 0 0.05 0"/>
<feBlend mode="normal" in2="BackgroundImageFix" result="effect1_dropShadow_79_1983"/>
<feColorMatrix in="SourceAlpha" type="matrix" values="0 0 0 0 0 0 0 0 0 0 0 0 0 0 0 0 0 0 127 0" result="hardAlpha"/>
<feOffset dy="9"/>
<feGaussianBlur stdDeviation="4.5"/>
<feColorMatrix type="matrix" values="0 0 0 0 0.211765 0 0 0 0 0.207843 0 0 0 0 0.211765 0 0 0 0.04 0"/>
<feBlend mode="normal" in2="effect1_dropShadow_79_1983" result="effect2_dropShadow_79_1983"/>
<feColorMatrix in="SourceAlpha" type="matrix" values="0 0 0 0 0 0 0 0 0 0 0 0 0 0 0 0 0 0 127 0" result="hardAlpha"/>
<feOffset dy="21"/>
<feGaussianBlur stdDeviation="6"/>
<feColorMatrix type="matrix" values="0 0 0 0 0.211765 0 0 0 0 0.207843 0 0 0 0 0.211765 0 0 0 0.03 0"/>
<feBlend mode="normal" in2="effect2_dropShadow_79_1983" result="effect3_dropShadow_79_1983"/>
<feColorMatrix in="SourceAlpha" type="matrix" values="0 0 0 0 0 0 0 0 0 0 0 0 0 0 0 0 0 0 127 0" result="hardAlpha"/>
<feOffset dy="37.5"/>
<feGaussianBlur stdDeviation="7.5"/>
<feColorMatrix type="matrix" values="0 0 0 0 0.211765 0 0 0 0 0.207843 0 0 0 0 0.211765 0 0 0 0.01 0"/>
<feBlend mode="normal" in2="effect3_dropShadow_79_1983" result="effect4_dropShadow_79_1983"/>
<feBlend mode="normal" in="SourceGraphic" in2="effect4_dropShadow_79_1983" result="shape"/>
</filter>
</defs>
</svg>
