<svg width="301" height="108" viewBox="0 0 301 108" fill="none" xmlns="http://www.w3.org/2000/svg">
<g filter="url(#filter0_dddd_84_10909)">
<rect x="10" y="1" width="281" height="72" rx="36" fill="white"/>
<rect x="18" y="9" width="56" height="56" rx="28" fill="#F46426" fill-opacity="0.1"/>
<path d="M49.5042 25.4648C49.9837 25.1909 50.5948 25.3577 50.8688 25.8372L55.9144 34.6666H59.3337C59.8859 34.6666 60.3337 35.1143 60.3337 35.6666C60.3337 36.2189 59.8859 36.6666 59.3337 36.6666H58.2633L56.1748 45.7578L56.1735 45.7565C55.9983 46.5875 55.5415 47.3323 54.8779 47.8632C54.2133 48.3949 53.3848 48.6777 52.5342 48.6653V48.6666H39.4665V48.6653C38.6159 48.6777 37.7873 48.3949 37.1227 47.8632C36.4529 47.3273 35.992 46.5736 35.8206 45.733V45.7317L33.8597 36.6666H32.667C32.1147 36.6666 31.667 36.2189 31.667 35.6666C31.667 35.1143 32.1147 34.6666 32.667 34.6666H36.0863L41.1318 25.8372C41.4058 25.3577 42.0169 25.1909 42.4964 25.4648C42.9759 25.7388 43.1427 26.3499 42.8688 26.8294L38.391 34.6666H53.6097L49.1318 26.8294C48.8579 26.3499 49.0248 25.7388 49.5042 25.4648ZM37.7777 45.3216L37.7803 45.3333C37.8582 45.7153 38.0671 46.0584 38.3714 46.302C38.676 46.5457 39.057 46.6745 39.4469 46.6666H42.2165L41.7725 42.6666H37.2035L37.7777 45.3216ZM49.7842 46.6666H52.5537C52.9436 46.6745 53.3247 46.5457 53.6292 46.302C53.9336 46.0584 54.1425 45.7153 54.2204 45.3333C54.222 45.3255 54.2238 45.3177 54.2256 45.3099L54.8324 42.6666H50.2282L49.7842 46.6666ZM44.2282 46.6666H47.7725L48.2165 42.6666H43.7842L44.2282 46.6666ZM50.4508 40.6666H55.292L56.2113 36.6666H50.8949L50.4508 40.6666ZM43.5615 40.6666H48.4391L48.8831 36.6666H43.1175L43.5615 40.6666ZM36.7712 40.6666H41.5498L41.1058 36.6666H35.9066L36.7712 40.6666Z" fill="#F46426"/>
<path d="M94.82 44.694V38.034H88.16V35.01H94.82V28.386H97.844V35.01H104.486V38.034H97.844V44.694H94.82ZM116.483 50.04C115.151 50.04 113.909 49.77 112.757 49.23C111.617 48.678 110.639 47.922 109.823 46.962C109.007 45.99 108.425 44.874 108.077 43.614L111.695 42.642C111.899 43.41 112.247 44.076 112.739 44.64C113.243 45.204 113.831 45.642 114.503 45.954C115.175 46.254 115.871 46.404 116.591 46.404C117.539 46.404 118.397 46.176 119.165 45.72C119.945 45.264 120.557 44.652 121.001 43.884C121.457 43.116 121.685 42.27 121.685 41.346C121.685 40.398 121.451 39.54 120.983 38.772C120.527 38.004 119.909 37.398 119.129 36.954C118.361 36.498 117.515 36.27 116.591 36.27C115.535 36.27 114.641 36.48 113.909 36.9C113.177 37.32 112.607 37.806 112.199 38.358L108.923 37.206L109.715 23.58H123.701V27.126H111.641L113.171 25.704L112.541 35.91L111.803 34.956C112.487 34.272 113.303 33.75 114.251 33.39C115.199 33.03 116.141 32.85 117.077 32.85C118.685 32.85 120.119 33.222 121.379 33.966C122.651 34.71 123.653 35.724 124.385 37.008C125.117 38.28 125.483 39.726 125.483 41.346C125.483 42.954 125.069 44.418 124.241 45.738C123.413 47.046 122.315 48.09 120.947 48.87C119.579 49.65 118.091 50.04 116.483 50.04ZM138.461 50.04C136.697 50.04 135.137 49.656 133.781 48.888C132.425 48.108 131.357 47.04 130.577 45.684C129.809 44.328 129.425 42.768 129.425 41.004V32.076C129.425 30.312 129.809 28.752 130.577 27.396C131.357 26.04 132.425 24.978 133.781 24.21C135.137 23.43 136.697 23.04 138.461 23.04C140.225 23.04 141.785 23.43 143.141 24.21C144.497 24.978 145.559 26.04 146.327 27.396C147.107 28.752 147.497 30.312 147.497 32.076V41.004C147.497 42.768 147.107 44.328 146.327 45.684C145.559 47.04 144.497 48.108 143.141 48.888C141.785 49.656 140.225 50.04 138.461 50.04ZM138.461 46.44C139.421 46.44 140.291 46.212 141.071 45.756C141.863 45.288 142.493 44.664 142.961 43.884C143.429 43.092 143.663 42.21 143.663 41.238V31.806C143.663 30.846 143.429 29.976 142.961 29.196C142.493 28.404 141.863 27.78 141.071 27.324C140.291 26.856 139.421 26.622 138.461 26.622C137.501 26.622 136.625 26.856 135.833 27.324C135.053 27.78 134.429 28.404 133.961 29.196C133.493 29.976 133.259 30.846 133.259 31.806V41.238C133.259 42.21 133.493 43.092 133.961 43.884C134.429 44.664 135.053 45.288 135.833 45.756C136.625 46.212 137.501 46.44 138.461 46.44ZM167.452 50.04C165.508 50.04 163.822 49.602 162.394 48.726C160.966 47.85 159.862 46.644 159.082 45.108C158.314 43.56 157.93 41.778 157.93 39.762C157.93 37.734 158.326 35.952 159.118 34.416C159.91 32.868 161.02 31.668 162.448 30.816C163.876 29.952 165.544 29.52 167.452 29.52C169.396 29.52 171.082 29.958 172.51 30.834C173.938 31.71 175.042 32.916 175.822 34.452C176.602 35.988 176.992 37.758 176.992 39.762C176.992 41.79 176.596 43.578 175.804 45.126C175.024 46.662 173.92 47.868 172.492 48.744C171.064 49.608 169.384 50.04 167.452 50.04ZM167.452 46.494C169.312 46.494 170.698 45.87 171.61 44.622C172.534 43.362 172.996 41.742 172.996 39.762C172.996 37.734 172.528 36.114 171.592 34.902C170.668 33.678 169.288 33.066 167.452 33.066C166.192 33.066 165.154 33.354 164.338 33.93C163.522 34.494 162.916 35.28 162.52 36.288C162.124 37.284 161.926 38.442 161.926 39.762C161.926 41.802 162.394 43.434 163.33 44.658C164.266 45.882 165.64 46.494 167.452 46.494ZM180.587 49.5V30.06H183.935V34.776L183.467 34.164C183.707 33.54 184.019 32.97 184.403 32.454C184.787 31.926 185.231 31.494 185.735 31.158C186.227 30.798 186.773 30.522 187.373 30.33C187.985 30.126 188.609 30.006 189.245 29.97C189.881 29.922 190.493 29.952 191.081 30.06V33.588C190.445 33.42 189.737 33.372 188.957 33.444C188.189 33.516 187.481 33.762 186.833 34.182C186.221 34.578 185.735 35.058 185.375 35.622C185.027 36.186 184.775 36.816 184.619 37.512C184.463 38.196 184.385 38.922 184.385 39.69V49.5H180.587ZM201.519 50.04C199.707 50.04 198.141 49.59 196.821 48.69C195.513 47.79 194.499 46.566 193.779 45.018C193.071 43.458 192.717 41.706 192.717 39.762C192.717 37.806 193.077 36.06 193.797 34.524C194.517 32.976 195.537 31.758 196.857 30.87C198.189 29.97 199.767 29.52 201.591 29.52C203.427 29.52 204.969 29.97 206.217 30.87C207.477 31.758 208.425 32.976 209.061 34.524C209.709 36.072 210.033 37.818 210.033 39.762C210.033 41.706 209.709 43.452 209.061 45C208.413 46.548 207.459 47.778 206.199 48.69C204.939 49.59 203.379 50.04 201.519 50.04ZM202.041 46.638C203.277 46.638 204.285 46.344 205.065 45.756C205.845 45.168 206.415 44.358 206.775 43.326C207.135 42.294 207.315 41.106 207.315 39.762C207.315 38.418 207.129 37.23 206.757 36.198C206.397 35.166 205.833 34.362 205.065 33.786C204.309 33.21 203.343 32.922 202.167 32.922C200.919 32.922 199.893 33.228 199.089 33.84C198.285 34.452 197.685 35.274 197.289 36.306C196.905 37.338 196.713 38.49 196.713 39.762C196.713 41.046 196.905 42.21 197.289 43.254C197.685 44.286 198.273 45.108 199.053 45.72C199.845 46.332 200.841 46.638 202.041 46.638ZM207.315 49.5V35.514H206.883V23.58H210.663V49.5H207.315ZM223.962 50.04C222.03 50.04 220.332 49.62 218.868 48.78C217.416 47.928 216.282 46.746 215.466 45.234C214.662 43.71 214.26 41.946 214.26 39.942C214.26 37.818 214.656 35.976 215.448 34.416C216.252 32.856 217.368 31.65 218.796 30.798C220.224 29.946 221.886 29.52 223.782 29.52C225.762 29.52 227.448 29.982 228.84 30.906C230.232 31.818 231.27 33.12 231.954 34.812C232.65 36.504 232.926 38.514 232.782 40.842H229.02V39.474C228.996 37.218 228.564 35.55 227.724 34.47C226.896 33.39 225.63 32.85 223.926 32.85C222.042 32.85 220.626 33.444 219.678 34.632C218.73 35.82 218.256 37.536 218.256 39.78C218.256 41.916 218.73 43.572 219.678 44.748C220.626 45.912 221.994 46.494 223.782 46.494C224.958 46.494 225.972 46.23 226.824 45.702C227.688 45.162 228.36 44.394 228.84 43.398L232.53 44.568C231.774 46.308 230.628 47.658 229.092 48.618C227.556 49.566 225.846 50.04 223.962 50.04ZM217.032 40.842V37.908H230.91V40.842H217.032ZM236.46 49.5V30.06H239.808V34.776L239.34 34.164C239.58 33.54 239.892 32.97 240.276 32.454C240.66 31.926 241.104 31.494 241.608 31.158C242.1 30.798 242.646 30.522 243.246 30.33C243.858 30.126 244.482 30.006 245.118 29.97C245.754 29.922 246.366 29.952 246.954 30.06V33.588C246.318 33.42 245.61 33.372 244.83 33.444C244.062 33.516 243.354 33.762 242.706 34.182C242.094 34.578 241.608 35.058 241.248 35.622C240.9 36.186 240.648 36.816 240.492 37.512C240.336 38.196 240.258 38.922 240.258 39.69V49.5H236.46ZM256.753 50.022C254.389 50.022 252.463 49.5 250.975 48.456C249.487 47.412 248.575 45.942 248.239 44.046L252.091 43.452C252.331 44.46 252.883 45.258 253.747 45.846C254.623 46.422 255.709 46.71 257.005 46.71C258.181 46.71 259.099 46.47 259.759 45.99C260.431 45.51 260.767 44.85 260.767 44.01C260.767 43.518 260.647 43.122 260.407 42.822C260.179 42.51 259.693 42.216 258.949 41.94C258.205 41.664 257.071 41.322 255.547 40.914C253.879 40.482 252.553 40.02 251.569 39.528C250.597 39.024 249.901 38.442 249.481 37.782C249.073 37.11 248.869 36.3 248.869 35.352C248.869 34.176 249.181 33.15 249.805 32.274C250.429 31.398 251.305 30.72 252.433 30.24C253.573 29.76 254.905 29.52 256.429 29.52C257.917 29.52 259.243 29.754 260.407 30.222C261.571 30.69 262.513 31.356 263.233 32.22C263.953 33.072 264.385 34.074 264.529 35.226L260.677 35.928C260.545 34.992 260.107 34.254 259.363 33.714C258.619 33.174 257.653 32.88 256.465 32.832C255.325 32.784 254.401 32.976 253.693 33.408C252.985 33.828 252.631 34.41 252.631 35.154C252.631 35.586 252.763 35.952 253.027 36.252C253.303 36.552 253.831 36.84 254.611 37.116C255.391 37.392 256.543 37.722 258.067 38.106C259.699 38.526 260.995 38.994 261.955 39.51C262.915 40.014 263.599 40.62 264.007 41.328C264.427 42.024 264.637 42.87 264.637 43.866C264.637 45.786 263.935 47.292 262.531 48.384C261.139 49.476 259.213 50.022 256.753 50.022Z" fill="#010104" fill-opacity="0.85"/>
</g>
<defs>
<filter id="filter0_dddd_84_10909" x="0" y="0" width="301" height="108" filterUnits="userSpaceOnUse" color-interpolation-filters="sRGB">
<feFlood flood-opacity="0" result="BackgroundImageFix"/>
<feColorMatrix in="SourceAlpha" type="matrix" values="0 0 0 0 0 0 0 0 0 0 0 0 0 0 0 0 0 0 127 0" result="hardAlpha"/>
<feOffset dy="2"/>
<feGaussianBlur stdDeviation="1.5"/>
<feColorMatrix type="matrix" values="0 0 0 0 0.211765 0 0 0 0 0.207843 0 0 0 0 0.211765 0 0 0 0.05 0"/>
<feBlend mode="normal" in2="BackgroundImageFix" result="effect1_dropShadow_84_10909"/>
<feColorMatrix in="SourceAlpha" type="matrix" values="0 0 0 0 0 0 0 0 0 0 0 0 0 0 0 0 0 0 127 0" result="hardAlpha"/>
<feOffset dy="6"/>
<feGaussianBlur stdDeviation="3"/>
<feColorMatrix type="matrix" values="0 0 0 0 0.211765 0 0 0 0 0.207843 0 0 0 0 0.211765 0 0 0 0.04 0"/>
<feBlend mode="normal" in2="effect1_dropShadow_84_10909" result="effect2_dropShadow_84_10909"/>
<feColorMatrix in="SourceAlpha" type="matrix" values="0 0 0 0 0 0 0 0 0 0 0 0 0 0 0 0 0 0 127 0" result="hardAlpha"/>
<feOffset dy="14"/>
<feGaussianBlur stdDeviation="4"/>
<feColorMatrix type="matrix" values="0 0 0 0 0.211765 0 0 0 0 0.207843 0 0 0 0 0.211765 0 0 0 0.03 0"/>
<feBlend mode="normal" in2="effect2_dropShadow_84_10909" result="effect3_dropShadow_84_10909"/>
<feColorMatrix in="SourceAlpha" type="matrix" values="0 0 0 0 0 0 0 0 0 0 0 0 0 0 0 0 0 0 127 0" result="hardAlpha"/>
<feOffset dy="25"/>
<feGaussianBlur stdDeviation="5"/>
<feColorMatrix type="matrix" values="0 0 0 0 0.211765 0 0 0 0 0.207843 0 0 0 0 0.211765 0 0 0 0.01 0"/>
<feBlend mode="normal" in2="effect3_dropShadow_84_10909" result="effect4_dropShadow_84_10909"/>
<feBlend mode="normal" in="SourceGraphic" in2="effect4_dropShadow_84_10909" result="shape"/>
</filter>
</defs>
</svg>
