<svg width="374" height="108" viewBox="0 0 374 108" fill="none" xmlns="http://www.w3.org/2000/svg">
<g filter="url(#filter0_dddd_84_10897)">
<rect x="10" y="1" width="354" height="72" rx="36" fill="white"/>
<rect x="18" y="9" width="56" height="56" rx="28" fill="#059669" fill-opacity="0.1"/>
<path d="M58.3268 36.9997C58.3268 36.2723 58.1436 35.5569 57.7943 34.9189C57.4449 34.2809 56.941 33.7405 56.3281 33.3486C55.9737 33.1219 55.7997 32.6979 55.8919 32.2874C56.0522 31.5744 56.029 30.8318 55.8255 30.1299C55.622 29.4281 55.2446 28.7885 54.7279 28.2718C54.2111 27.7551 53.5716 27.3776 52.8698 27.1742C52.1681 26.9708 51.4263 26.9489 50.7135 27.109C50.3029 27.2014 49.8778 27.0261 49.651 26.6715C49.2593 26.059 48.7198 25.5547 48.082 25.2054C47.444 24.8561 46.7274 24.6729 46 24.6729C45.2727 24.6729 44.5572 24.8561 43.9193 25.2054C43.2812 25.5547 42.7408 26.0587 42.349 26.6715C42.1223 27.026 41.6982 27.2011 41.2878 27.109C40.5759 26.9495 39.8348 26.9725 39.1341 27.1755C38.4336 27.3785 37.7949 27.7553 37.2786 28.2705C36.7625 28.7858 36.3853 29.4233 36.181 30.1234C35.9766 30.8237 35.9513 31.5648 36.1094 32.277C36.2005 32.6885 36.0241 33.1128 35.668 33.3382C35.0506 33.729 34.5425 34.2698 34.1901 34.9098C33.8376 35.55 33.6524 36.2689 33.6523 36.9997C33.6523 37.7305 33.8376 38.4493 34.1901 39.0895C34.5425 39.7296 35.0506 40.2703 35.668 40.6611C36.0242 40.8866 36.2007 41.312 36.1094 41.7236C35.9514 42.4356 35.9767 43.1759 36.181 43.876C36.3854 44.5763 36.7622 45.2148 37.2786 45.7301C37.795 46.2454 38.4335 46.6222 39.1341 46.8252C39.8348 47.0281 40.5759 47.0498 41.2878 46.8903C41.6988 46.7981 42.1239 46.9739 42.3503 47.3291C42.7416 47.9443 43.2828 48.4509 43.9219 48.8018C44.5608 49.1525 45.2776 49.3368 46.0065 49.3369C46.7356 49.3369 47.4533 49.1527 48.0924 48.8018C48.7315 48.4509 49.2715 47.9442 49.6628 47.3291C49.8886 46.9743 50.3133 46.7991 50.724 46.8903C51.4359 47.0483 52.1762 47.0242 52.8763 46.82C53.5767 46.6156 54.2151 46.2375 54.7305 45.721C55.2458 45.2046 55.6226 44.5663 55.8255 43.8656C56.0285 43.1648 56.0502 42.4238 55.8906 41.7119C55.7987 41.3015 55.9738 40.8773 56.3281 40.6507C56.941 40.2589 57.4449 39.7184 57.7943 39.0804C58.1435 38.4424 58.3268 37.727 58.3268 36.9997ZM49.293 32.2926C49.6834 31.9022 50.3165 31.9023 50.707 32.2926C51.0976 32.6832 51.0976 33.3162 50.707 33.7067L42.707 41.7067C42.3165 42.0972 41.6835 42.0972 41.293 41.7067C40.9027 41.3162 40.9026 40.6831 41.293 40.2926L49.293 32.2926ZM50.013 39.9997C50.5653 39.9997 51.013 40.4475 51.013 40.9997C51.013 41.552 50.5653 41.9997 50.013 41.9997H50C49.4478 41.9995 49 41.5519 49 40.9997C49.0001 40.4475 49.4479 39.9998 50 39.9997H50.013ZM42.013 31.9997C42.5653 31.9997 43.013 32.4474 43.013 32.9997C43.013 33.552 42.5653 33.9997 42.013 33.9997H42C41.4478 33.9995 41 33.5519 41 32.9997C41.0001 32.4475 41.4479 31.9998 42 31.9997H42.013ZM60.3268 36.9997C60.3268 38.0627 60.06 39.1089 59.5495 40.0413C59.1473 40.7759 58.6019 41.4189 57.9518 41.9398C58.047 42.7706 57.9799 43.614 57.7461 44.4216C57.4495 45.4458 56.8991 46.379 56.1458 47.1338C55.3927 47.8885 54.461 48.4405 53.4375 48.7393C52.6304 48.9748 51.7869 49.0436 50.9557 48.9502C50.4348 49.6034 49.7909 50.1514 49.0547 50.5557C48.1207 51.0684 47.072 51.3369 46.0065 51.3369C44.941 51.3368 43.8923 51.0685 42.9583 50.5557C42.2224 50.1515 41.5781 49.6045 41.0573 48.9515C40.2274 49.0461 39.3847 48.9794 38.5781 48.7458C37.5539 48.4491 36.6206 47.8987 35.8659 47.1455C35.1113 46.3924 34.5592 45.4606 34.2604 44.4372C34.025 43.6306 33.955 42.7873 34.0482 41.9567C33.3928 41.4361 32.8433 40.7915 32.4375 40.0544C31.9224 39.1187 31.6523 38.0678 31.6523 36.9997C31.6524 35.9316 31.9224 34.8806 32.4375 33.945C32.8435 33.2076 33.3925 32.562 34.0482 32.0413C33.9553 31.2112 34.0251 30.3683 34.2604 29.5622C34.5592 28.5388 35.1113 27.6069 35.8659 26.8538C36.6207 26.1006 37.5539 25.5502 38.5781 25.2536C39.3851 25.0199 40.2283 24.9517 41.0586 25.0465C41.5794 24.3966 42.224 23.8536 42.9583 23.4515C43.8908 22.941 44.937 22.6729 46 22.6729C47.0631 22.6729 48.1092 22.9409 49.0417 23.4515C49.7758 23.8535 50.4194 24.3969 50.9401 25.0465C51.7725 24.9508 52.6181 25.0191 53.4271 25.2536C54.4527 25.5509 55.3868 26.1027 56.1419 26.8577C56.8972 27.613 57.4487 28.548 57.7461 29.5739C57.9804 30.3823 58.0486 31.2266 57.9531 32.0583C58.6032 32.5791 59.1473 33.2235 59.5495 33.958C60.06 34.8904 60.3268 35.9366 60.3268 36.9997Z" fill="#059669"/>
<path d="M94.82 44.694V38.034H88.16V35.01H94.82V28.386H97.844V35.01H104.486V38.034H97.844V44.694H94.82ZM113.315 49.5V27.72L108.437 30.69V26.496L113.315 23.58H117.149V49.5H113.315ZM131.31 50.04C129.978 50.04 128.736 49.77 127.584 49.23C126.444 48.678 125.466 47.922 124.65 46.962C123.834 45.99 123.252 44.874 122.904 43.614L126.522 42.642C126.726 43.41 127.074 44.076 127.566 44.64C128.07 45.204 128.658 45.642 129.33 45.954C130.002 46.254 130.698 46.404 131.418 46.404C132.366 46.404 133.224 46.176 133.992 45.72C134.772 45.264 135.384 44.652 135.828 43.884C136.284 43.116 136.512 42.27 136.512 41.346C136.512 40.398 136.278 39.54 135.81 38.772C135.354 38.004 134.736 37.398 133.956 36.954C133.188 36.498 132.342 36.27 131.418 36.27C130.362 36.27 129.468 36.48 128.736 36.9C128.004 37.32 127.434 37.806 127.026 38.358L123.75 37.206L124.542 23.58H138.528V27.126H126.468L127.998 25.704L127.368 35.91L126.63 34.956C127.314 34.272 128.13 33.75 129.078 33.39C130.026 33.03 130.968 32.85 131.904 32.85C133.512 32.85 134.946 33.222 136.206 33.966C137.478 34.71 138.48 35.724 139.212 37.008C139.944 38.28 140.31 39.726 140.31 41.346C140.31 42.954 139.896 44.418 139.068 45.738C138.24 47.046 137.142 48.09 135.774 48.87C134.406 49.65 132.918 50.04 131.31 50.04ZM147.492 49.5L144.972 46.98L168.39 23.58L170.91 26.118L147.492 49.5ZM165.51 50.04C164.322 50.04 163.236 49.752 162.253 49.176C161.28 48.588 160.5 47.808 159.912 46.836C159.324 45.852 159.03 44.76 159.03 43.56C159.03 42.384 159.33 41.304 159.93 40.32C160.53 39.336 161.322 38.55 162.306 37.962C163.29 37.374 164.358 37.08 165.51 37.08C166.698 37.08 167.784 37.374 168.768 37.962C169.753 38.538 170.533 39.318 171.108 40.302C171.697 41.274 171.991 42.36 171.991 43.56C171.991 44.76 171.697 45.852 171.108 46.836C170.533 47.808 169.753 48.588 168.768 49.176C167.784 49.752 166.698 50.04 165.51 50.04ZM165.51 46.782C166.099 46.782 166.633 46.638 167.112 46.35C167.604 46.05 167.994 45.654 168.282 45.162C168.582 44.67 168.733 44.136 168.733 43.56C168.733 42.984 168.582 42.45 168.282 41.958C167.994 41.466 167.604 41.076 167.112 40.788C166.633 40.488 166.099 40.338 165.51 40.338C164.934 40.338 164.4 40.488 163.909 40.788C163.428 41.076 163.038 41.466 162.738 41.958C162.45 42.45 162.306 42.984 162.306 43.56C162.306 44.136 162.45 44.67 162.738 45.162C163.038 45.654 163.428 46.05 163.909 46.35C164.4 46.638 164.934 46.782 165.51 46.782ZM150.372 36C149.184 36 148.098 35.712 147.114 35.136C146.13 34.548 145.344 33.768 144.756 32.796C144.18 31.812 143.892 30.72 143.892 29.52C143.892 28.344 144.192 27.264 144.792 26.28C145.392 25.296 146.184 24.51 147.168 23.922C148.152 23.334 149.22 23.04 150.372 23.04C151.56 23.04 152.64 23.334 153.612 23.922C154.596 24.498 155.382 25.278 155.97 26.262C156.558 27.234 156.852 28.32 156.852 29.52C156.852 30.72 156.558 31.812 155.97 32.796C155.382 33.768 154.596 34.548 153.612 35.136C152.64 35.712 151.56 36 150.372 36ZM150.372 32.742C150.948 32.742 151.482 32.598 151.974 32.31C152.466 32.01 152.856 31.614 153.144 31.122C153.444 30.63 153.594 30.096 153.594 29.52C153.594 28.944 153.444 28.41 153.144 27.918C152.856 27.426 152.466 27.036 151.974 26.748C151.482 26.448 150.948 26.298 150.372 26.298C149.796 26.298 149.262 26.448 148.77 26.748C148.29 27.036 147.9 27.426 147.6 27.918C147.3 28.41 147.15 28.944 147.15 29.52C147.15 30.096 147.3 30.63 147.6 31.122C147.9 31.614 148.29 32.01 148.77 32.31C149.25 32.598 149.784 32.742 150.372 32.742ZM183.154 49.5V30.06H186.502V34.776L186.034 34.164C186.274 33.54 186.586 32.97 186.97 32.454C187.354 31.926 187.798 31.494 188.302 31.158C188.794 30.798 189.34 30.522 189.94 30.33C190.552 30.126 191.176 30.006 191.812 29.97C192.448 29.922 193.06 29.952 193.648 30.06V33.588C193.012 33.42 192.304 33.372 191.524 33.444C190.756 33.516 190.048 33.762 189.4 34.182C188.788 34.578 188.302 35.058 187.942 35.622C187.594 36.186 187.342 36.816 187.186 37.512C187.03 38.196 186.952 38.922 186.952 39.69V49.5H183.154ZM204.986 50.04C203.054 50.04 201.356 49.62 199.892 48.78C198.44 47.928 197.306 46.746 196.49 45.234C195.686 43.71 195.284 41.946 195.284 39.942C195.284 37.818 195.68 35.976 196.472 34.416C197.276 32.856 198.392 31.65 199.82 30.798C201.248 29.946 202.91 29.52 204.806 29.52C206.786 29.52 208.472 29.982 209.864 30.906C211.256 31.818 212.294 33.12 212.978 34.812C213.674 36.504 213.95 38.514 213.806 40.842H210.044V39.474C210.02 37.218 209.588 35.55 208.748 34.47C207.92 33.39 206.654 32.85 204.95 32.85C203.066 32.85 201.65 33.444 200.702 34.632C199.754 35.82 199.28 37.536 199.28 39.78C199.28 41.916 199.754 43.572 200.702 44.748C201.65 45.912 203.018 46.494 204.806 46.494C205.982 46.494 206.996 46.23 207.848 45.702C208.712 45.162 209.384 44.394 209.864 43.398L213.554 44.568C212.798 46.308 211.652 47.658 210.116 48.618C208.58 49.566 206.87 50.04 204.986 50.04ZM198.056 40.842V37.908H211.934V40.842H198.056ZM228.608 49.5C227.384 49.74 226.184 49.842 225.008 49.806C223.832 49.77 222.782 49.542 221.858 49.122C220.934 48.702 220.238 48.042 219.77 47.142C219.35 46.338 219.122 45.522 219.086 44.694C219.062 43.854 219.05 42.906 219.05 41.85V24.66H222.83V41.67C222.83 42.45 222.836 43.128 222.848 43.704C222.872 44.28 222.998 44.766 223.226 45.162C223.658 45.906 224.342 46.332 225.278 46.44C226.226 46.536 227.336 46.494 228.608 46.314V49.5ZM215.324 33.084V30.06H228.608V33.084H215.324ZM240.09 50.04C238.158 50.04 236.46 49.62 234.996 48.78C233.544 47.928 232.41 46.746 231.594 45.234C230.79 43.71 230.388 41.946 230.388 39.942C230.388 37.818 230.784 35.976 231.576 34.416C232.38 32.856 233.496 31.65 234.924 30.798C236.352 29.946 238.014 29.52 239.91 29.52C241.89 29.52 243.576 29.982 244.968 30.906C246.36 31.818 247.398 33.12 248.082 34.812C248.778 36.504 249.054 38.514 248.91 40.842H245.148V39.474C245.124 37.218 244.692 35.55 243.852 34.47C243.024 33.39 241.758 32.85 240.054 32.85C238.17 32.85 236.754 33.444 235.806 34.632C234.858 35.82 234.384 37.536 234.384 39.78C234.384 41.916 234.858 43.572 235.806 44.748C236.754 45.912 238.122 46.494 239.91 46.494C241.086 46.494 242.1 46.23 242.952 45.702C243.816 45.162 244.488 44.394 244.968 43.398L248.658 44.568C247.902 46.308 246.756 47.658 245.22 48.618C243.684 49.566 241.974 50.04 240.09 50.04ZM233.16 40.842V37.908H247.038V40.842H233.16ZM265.705 49.5V39.942C265.705 39.186 265.639 38.412 265.507 37.62C265.387 36.816 265.147 36.072 264.787 35.388C264.439 34.704 263.941 34.152 263.293 33.732C262.657 33.312 261.823 33.102 260.791 33.102C260.119 33.102 259.483 33.216 258.883 33.444C258.283 33.66 257.755 34.014 257.299 34.506C256.855 34.998 256.501 35.646 256.237 36.45C255.985 37.254 255.859 38.232 255.859 39.384L253.519 38.502C253.519 36.738 253.849 35.184 254.509 33.84C255.169 32.484 256.117 31.428 257.353 30.672C258.589 29.916 260.083 29.538 261.835 29.538C263.179 29.538 264.307 29.754 265.219 30.186C266.131 30.618 266.869 31.188 267.433 31.896C268.009 32.592 268.447 33.354 268.747 34.182C269.047 35.01 269.251 35.82 269.359 36.612C269.467 37.404 269.521 38.1 269.521 38.7V49.5H265.705ZM252.043 49.5V30.06H255.409V35.676H255.859V49.5H252.043ZM284.974 49.5C283.75 49.74 282.55 49.842 281.374 49.806C280.198 49.77 279.148 49.542 278.224 49.122C277.3 48.702 276.604 48.042 276.136 47.142C275.716 46.338 275.488 45.522 275.452 44.694C275.428 43.854 275.416 42.906 275.416 41.85V24.66H279.196V41.67C279.196 42.45 279.202 43.128 279.214 43.704C279.238 44.28 279.364 44.766 279.592 45.162C280.024 45.906 280.708 46.332 281.644 46.44C282.592 46.536 283.702 46.494 284.974 46.314V49.5ZM271.69 33.084V30.06H284.974V33.084H271.69ZM289.072 26.874V23.22H292.834V26.874H289.072ZM289.072 49.5V30.06H292.834V49.5H289.072ZM306.322 50.04C304.378 50.04 302.692 49.602 301.264 48.726C299.836 47.85 298.732 46.644 297.952 45.108C297.184 43.56 296.8 41.778 296.8 39.762C296.8 37.734 297.196 35.952 297.988 34.416C298.78 32.868 299.89 31.668 301.318 30.816C302.746 29.952 304.414 29.52 306.322 29.52C308.266 29.52 309.952 29.958 311.38 30.834C312.808 31.71 313.912 32.916 314.692 34.452C315.472 35.988 315.862 37.758 315.862 39.762C315.862 41.79 315.466 43.578 314.674 45.126C313.894 46.662 312.79 47.868 311.362 48.744C309.934 49.608 308.254 50.04 306.322 50.04ZM306.322 46.494C308.182 46.494 309.568 45.87 310.48 44.622C311.404 43.362 311.866 41.742 311.866 39.762C311.866 37.734 311.398 36.114 310.462 34.902C309.538 33.678 308.158 33.066 306.322 33.066C305.062 33.066 304.024 33.354 303.208 33.93C302.392 34.494 301.786 35.28 301.39 36.288C300.994 37.284 300.796 38.442 300.796 39.762C300.796 41.802 301.264 43.434 302.2 44.658C303.136 45.882 304.51 46.494 306.322 46.494ZM333.101 49.5V39.942C333.101 39.186 333.035 38.412 332.903 37.62C332.783 36.816 332.543 36.072 332.183 35.388C331.835 34.704 331.337 34.152 330.689 33.732C330.053 33.312 329.219 33.102 328.187 33.102C327.515 33.102 326.879 33.216 326.279 33.444C325.679 33.66 325.151 34.014 324.695 34.506C324.251 34.998 323.897 35.646 323.633 36.45C323.381 37.254 323.255 38.232 323.255 39.384L320.915 38.502C320.915 36.738 321.245 35.184 321.905 33.84C322.565 32.484 323.513 31.428 324.749 30.672C325.985 29.916 327.479 29.538 329.231 29.538C330.575 29.538 331.703 29.754 332.615 30.186C333.527 30.618 334.265 31.188 334.829 31.896C335.405 32.592 335.843 33.354 336.143 34.182C336.443 35.01 336.647 35.82 336.755 36.612C336.863 37.404 336.917 38.1 336.917 38.7V49.5H333.101ZM319.439 49.5V30.06H322.805V35.676H323.255V49.5H319.439Z" fill="#010104" fill-opacity="0.85"/>
</g>
<defs>
<filter id="filter0_dddd_84_10897" x="0" y="0" width="374" height="108" filterUnits="userSpaceOnUse" color-interpolation-filters="sRGB">
<feFlood flood-opacity="0" result="BackgroundImageFix"/>
<feColorMatrix in="SourceAlpha" type="matrix" values="0 0 0 0 0 0 0 0 0 0 0 0 0 0 0 0 0 0 127 0" result="hardAlpha"/>
<feOffset dy="2"/>
<feGaussianBlur stdDeviation="1.5"/>
<feColorMatrix type="matrix" values="0 0 0 0 0.211765 0 0 0 0 0.207843 0 0 0 0 0.211765 0 0 0 0.05 0"/>
<feBlend mode="normal" in2="BackgroundImageFix" result="effect1_dropShadow_84_10897"/>
<feColorMatrix in="SourceAlpha" type="matrix" values="0 0 0 0 0 0 0 0 0 0 0 0 0 0 0 0 0 0 127 0" result="hardAlpha"/>
<feOffset dy="6"/>
<feGaussianBlur stdDeviation="3"/>
<feColorMatrix type="matrix" values="0 0 0 0 0.211765 0 0 0 0 0.207843 0 0 0 0 0.211765 0 0 0 0.04 0"/>
<feBlend mode="normal" in2="effect1_dropShadow_84_10897" result="effect2_dropShadow_84_10897"/>
<feColorMatrix in="SourceAlpha" type="matrix" values="0 0 0 0 0 0 0 0 0 0 0 0 0 0 0 0 0 0 127 0" result="hardAlpha"/>
<feOffset dy="14"/>
<feGaussianBlur stdDeviation="4"/>
<feColorMatrix type="matrix" values="0 0 0 0 0.211765 0 0 0 0 0.207843 0 0 0 0 0.211765 0 0 0 0.03 0"/>
<feBlend mode="normal" in2="effect2_dropShadow_84_10897" result="effect3_dropShadow_84_10897"/>
<feColorMatrix in="SourceAlpha" type="matrix" values="0 0 0 0 0 0 0 0 0 0 0 0 0 0 0 0 0 0 127 0" result="hardAlpha"/>
<feOffset dy="25"/>
<feGaussianBlur stdDeviation="5"/>
<feColorMatrix type="matrix" values="0 0 0 0 0.211765 0 0 0 0 0.207843 0 0 0 0 0.211765 0 0 0 0.01 0"/>
<feBlend mode="normal" in2="effect3_dropShadow_84_10897" result="effect4_dropShadow_84_10897"/>
<feBlend mode="normal" in="SourceGraphic" in2="effect4_dropShadow_84_10897" result="shape"/>
</filter>
</defs>
</svg>
