<svg width="647" height="216" viewBox="0 0 647 216" fill="none" xmlns="http://www.w3.org/2000/svg">
<g filter="url(#filter0_dddd_79_1951)">
<rect x="15" y="1.5" width="616.5" height="162" rx="36" fill="white"/>
<rect x="24" y="10.5" width="144" height="144" rx="27" fill="#E62600" fill-opacity="0.1"/>
<path d="M69.75 106.5V58.5C69.75 56.312 70.6198 54.2142 72.167 52.667C73.7142 51.1198 75.812 50.25 78 50.25H102V50.2529C103.245 50.2514 104.479 50.4941 105.63 50.9707C106.78 51.4473 107.824 52.146 108.703 53.0273L119.461 63.7851C120.346 64.6652 121.051 65.7142 121.529 66.8672C122.007 68.0186 122.252 69.2534 122.25 70.5V106.5C122.25 108.688 121.38 110.786 119.833 112.333C118.286 113.88 116.188 114.75 114 114.75H78C75.812 114.75 73.7142 113.88 72.167 112.333C70.6198 110.786 69.75 108.688 69.75 106.5ZM108 95.25C109.243 95.25 110.25 96.2573 110.25 97.5C110.25 98.7426 109.243 99.75 108 99.75H84C82.7574 99.75 81.75 98.7426 81.75 97.5C81.75 96.2573 82.7574 95.25 84 95.25H108ZM108 83.25C109.243 83.25 110.25 84.2573 110.25 85.5C110.25 86.7426 109.243 87.75 108 87.75H84C82.7574 87.75 81.75 86.7426 81.75 85.5C81.75 84.2573 82.7574 83.25 84 83.25H108ZM90 71.25C91.2426 71.25 92.25 72.2573 92.25 73.5C92.25 74.7426 91.2426 75.75 90 75.75H84C82.7574 75.75 81.75 74.7426 81.75 73.5C81.75 72.2573 82.7574 71.25 84 71.25H90ZM104.25 67.5C104.25 67.6989 104.329 67.8896 104.47 68.0303C104.61 68.1709 104.801 68.25 105 68.25H117.211C116.973 67.7811 116.665 67.3504 116.291 66.9785L105.519 56.206C105.147 55.8335 104.718 55.5263 104.25 55.289V67.5ZM74.25 106.5C74.25 107.495 74.6454 108.448 75.3486 109.151C76.0519 109.855 77.0054 110.25 78 110.25H114C114.995 110.25 115.948 109.855 116.651 109.151C117.355 108.448 117.75 107.495 117.75 106.5V72.75H105C103.608 72.75 102.273 72.1965 101.288 71.2119C100.304 70.2273 99.75 68.8924 99.75 67.5V54.75H78C77.0054 54.75 76.0519 55.1454 75.3486 55.8486C74.6454 56.5519 74.25 57.5054 74.25 58.5V106.5Z" fill="#E62600"/>
<path d="M203.532 74V52.652H195.36V48.08H216.6V52.652H208.428V74H203.532ZM224.998 74.54C223.042 74.54 221.326 74.102 219.85 73.226C218.374 72.35 217.222 71.144 216.394 69.608C215.578 68.06 215.17 66.284 215.17 64.28C215.17 62.252 215.59 60.47 216.43 58.934C217.27 57.386 218.428 56.18 219.904 55.316C221.38 54.452 223.078 54.02 224.998 54.02C226.954 54.02 228.67 54.458 230.146 55.334C231.634 56.21 232.792 57.422 233.62 58.97C234.448 60.506 234.862 62.276 234.862 64.28C234.862 66.296 234.442 68.078 233.602 69.626C232.774 71.162 231.616 72.368 230.128 73.244C228.652 74.108 226.942 74.54 224.998 74.54ZM224.998 69.968C226.57 69.968 227.74 69.44 228.508 68.384C229.288 67.316 229.678 65.948 229.678 64.28C229.678 62.552 229.282 61.172 228.49 60.14C227.71 59.108 226.546 58.592 224.998 58.592C223.93 58.592 223.054 58.832 222.37 59.312C221.686 59.792 221.176 60.458 220.84 61.31C220.516 62.162 220.354 63.152 220.354 64.28C220.354 66.02 220.744 67.406 221.524 68.438C222.316 69.458 223.474 69.968 224.998 69.968ZM246.344 74.54C244.556 74.54 242.99 74.09 241.646 73.19C240.302 72.29 239.252 71.066 238.496 69.518C237.752 67.97 237.38 66.224 237.38 64.28C237.38 62.3 237.758 60.542 238.514 59.006C239.282 57.458 240.356 56.24 241.736 55.352C243.116 54.464 244.736 54.02 246.596 54.02C248.444 54.02 249.998 54.47 251.258 55.37C252.518 56.27 253.472 57.494 254.12 59.042C254.768 60.59 255.092 62.336 255.092 64.28C255.092 66.224 254.762 67.97 254.102 69.518C253.454 71.066 252.482 72.29 251.186 73.19C249.89 74.09 248.276 74.54 246.344 74.54ZM247.136 70.184C248.228 70.184 249.098 69.938 249.746 69.446C250.406 68.954 250.88 68.264 251.168 67.376C251.456 66.488 251.6 65.456 251.6 64.28C251.6 63.104 251.456 62.072 251.168 61.184C250.88 60.296 250.418 59.606 249.782 59.114C249.158 58.622 248.336 58.376 247.316 58.376C246.224 58.376 245.324 58.646 244.616 59.186C243.92 59.714 243.404 60.428 243.068 61.328C242.732 62.216 242.564 63.2 242.564 64.28C242.564 65.372 242.726 66.368 243.05 67.268C243.374 68.156 243.872 68.864 244.544 69.392C245.216 69.92 246.08 70.184 247.136 70.184ZM251.6 74V60.68H250.988V48.08H255.92V74H251.6ZM266 74.54C264.608 74.54 263.426 74.276 262.454 73.748C261.494 73.208 260.762 72.494 260.258 71.606C259.766 70.706 259.52 69.716 259.52 68.636C259.52 67.736 259.658 66.914 259.934 66.17C260.21 65.426 260.654 64.772 261.266 64.208C261.89 63.632 262.724 63.152 263.768 62.768C264.488 62.504 265.346 62.27 266.342 62.066C267.338 61.862 268.466 61.67 269.726 61.49C270.986 61.298 272.372 61.088 273.884 60.86L272.12 61.832C272.12 60.68 271.844 59.834 271.292 59.294C270.74 58.754 269.816 58.484 268.52 58.484C267.8 58.484 267.05 58.658 266.27 59.006C265.49 59.354 264.944 59.972 264.632 60.86L260.204 59.456C260.696 57.848 261.62 56.54 262.976 55.532C264.332 54.524 266.18 54.02 268.52 54.02C270.236 54.02 271.76 54.284 273.092 54.812C274.424 55.34 275.432 56.252 276.116 57.548C276.5 58.268 276.728 58.988 276.8 59.708C276.872 60.428 276.908 61.232 276.908 62.12V74H272.624V70.004L273.236 70.832C272.288 72.14 271.262 73.088 270.158 73.676C269.066 74.252 267.68 74.54 266 74.54ZM267.044 70.688C267.944 70.688 268.7 70.532 269.312 70.22C269.936 69.896 270.428 69.53 270.788 69.122C271.16 68.714 271.412 68.372 271.544 68.096C271.796 67.568 271.94 66.956 271.976 66.26C272.024 65.552 272.048 64.964 272.048 64.496L273.488 64.856C272.036 65.096 270.86 65.3 269.96 65.468C269.06 65.624 268.334 65.768 267.782 65.9C267.23 66.032 266.744 66.176 266.324 66.332C265.844 66.524 265.454 66.734 265.154 66.962C264.866 67.178 264.65 67.418 264.506 67.682C264.374 67.946 264.308 68.24 264.308 68.564C264.308 69.008 264.416 69.392 264.632 69.716C264.86 70.028 265.178 70.268 265.586 70.436C265.994 70.604 266.48 70.688 267.044 70.688ZM282.623 82.64L286.367 72.344L286.439 75.368L277.979 54.56H283.055L288.743 69.284H287.591L293.243 54.56H298.139L287.159 82.64H282.623ZM301.03 57.836L301.318 55.784C301.894 55.832 302.362 55.742 302.722 55.514C303.082 55.274 303.328 54.938 303.46 54.506C303.604 54.062 303.634 53.552 303.55 52.976H301.03V48.08H305.926V52.976C305.926 54.704 305.524 56.012 304.72 56.9C303.916 57.788 302.686 58.1 301.03 57.836ZM315.632 74.54C313.184 74.54 311.204 73.988 309.692 72.884C308.192 71.768 307.28 70.196 306.956 68.168L311.96 67.412C312.164 68.324 312.614 69.038 313.31 69.554C314.018 70.07 314.912 70.328 315.992 70.328C316.88 70.328 317.564 70.16 318.044 69.824C318.524 69.476 318.764 68.996 318.764 68.384C318.764 68 318.668 67.694 318.476 67.466C318.284 67.226 317.852 66.992 317.18 66.764C316.52 66.536 315.488 66.236 314.084 65.864C312.5 65.456 311.234 65 310.286 64.496C309.338 63.992 308.654 63.392 308.234 62.696C307.814 61.988 307.604 61.136 307.604 60.14C307.604 58.892 307.922 57.812 308.558 56.9C309.194 55.976 310.088 55.268 311.24 54.776C312.404 54.272 313.772 54.02 315.344 54.02C316.868 54.02 318.218 54.254 319.394 54.722C320.57 55.19 321.518 55.856 322.238 56.72C322.97 57.584 323.42 58.604 323.588 59.78L318.584 60.68C318.5 59.96 318.188 59.39 317.648 58.97C317.108 58.55 316.376 58.304 315.452 58.232C314.552 58.172 313.826 58.292 313.274 58.592C312.734 58.892 312.464 59.324 312.464 59.888C312.464 60.224 312.578 60.506 312.806 60.734C313.046 60.962 313.532 61.196 314.264 61.436C315.008 61.676 316.136 61.988 317.648 62.372C319.124 62.756 320.306 63.206 321.194 63.722C322.094 64.226 322.748 64.838 323.156 65.558C323.564 66.266 323.768 67.124 323.768 68.132C323.768 70.124 323.048 71.69 321.608 72.83C320.168 73.97 318.176 74.54 315.632 74.54ZM334.21 74V48.08H345.154C345.406 48.08 345.742 48.092 346.162 48.116C346.594 48.128 346.978 48.164 347.314 48.224C348.862 48.464 350.128 48.974 351.112 49.754C352.108 50.534 352.84 51.518 353.308 52.706C353.776 53.882 354.01 55.196 354.01 56.648C354.01 58.82 353.47 60.68 352.39 62.228C351.31 63.764 349.618 64.712 347.314 65.072L345.154 65.216H339.106V74H334.21ZM348.826 74L343.714 63.452L348.754 62.48L354.37 74H348.826ZM339.106 60.644H344.938C345.19 60.644 345.466 60.632 345.766 60.608C346.066 60.584 346.342 60.536 346.594 60.464C347.254 60.284 347.764 59.984 348.124 59.564C348.484 59.132 348.73 58.658 348.862 58.142C349.006 57.614 349.078 57.116 349.078 56.648C349.078 56.18 349.006 55.688 348.862 55.172C348.73 54.644 348.484 54.17 348.124 53.75C347.764 53.318 347.254 53.012 346.594 52.832C346.342 52.76 346.066 52.712 345.766 52.688C345.466 52.664 345.19 52.652 344.938 52.652H339.106V60.644ZM367.003 74.54C365.011 74.54 363.253 74.114 361.729 73.262C360.217 72.398 359.029 71.216 358.165 69.716C357.313 68.204 356.887 66.476 356.887 64.532C356.887 62.408 357.307 60.56 358.147 58.988C358.987 57.416 360.145 56.198 361.621 55.334C363.097 54.458 364.795 54.02 366.715 54.02C368.755 54.02 370.489 54.5 371.917 55.46C373.345 56.42 374.401 57.77 375.085 59.51C375.769 61.25 376.009 63.296 375.805 65.648H370.963V63.848C370.963 61.868 370.645 60.446 370.009 59.582C369.385 58.706 368.359 58.268 366.931 58.268C365.263 58.268 364.033 58.778 363.241 59.798C362.461 60.806 362.071 62.3 362.071 64.28C362.071 66.092 362.461 67.496 363.241 68.492C364.033 69.476 365.191 69.968 366.715 69.968C367.675 69.968 368.497 69.758 369.181 69.338C369.865 68.918 370.387 68.312 370.747 67.52L375.643 68.924C374.911 70.7 373.753 72.08 372.169 73.064C370.597 74.048 368.875 74.54 367.003 74.54ZM360.559 65.648V62.012H373.447V65.648H360.559ZM388.522 74.54C386.59 74.54 384.976 74.09 383.68 73.19C382.384 72.29 381.406 71.066 380.746 69.518C380.098 67.97 379.774 66.224 379.774 64.28C379.774 62.336 380.098 60.59 380.746 59.042C381.394 57.494 382.348 56.27 383.608 55.37C384.868 54.47 386.422 54.02 388.27 54.02C390.13 54.02 391.75 54.464 393.13 55.352C394.51 56.24 395.578 57.458 396.334 59.006C397.102 60.542 397.486 62.3 397.486 64.28C397.486 66.224 397.108 67.97 396.352 69.518C395.608 71.066 394.564 72.29 393.22 73.19C391.876 74.09 390.31 74.54 388.522 74.54ZM378.946 82.64V54.56H383.266V67.88H383.878V82.64H378.946ZM387.73 70.184C388.786 70.184 389.65 69.92 390.322 69.392C390.994 68.864 391.492 68.156 391.816 67.268C392.14 66.368 392.302 65.372 392.302 64.28C392.302 63.2 392.134 62.216 391.798 61.328C391.462 60.428 390.94 59.714 390.232 59.186C389.536 58.646 388.642 58.376 387.55 58.376C386.53 58.376 385.702 58.622 385.066 59.114C384.442 59.606 383.986 60.296 383.698 61.184C383.41 62.072 383.266 63.104 383.266 64.28C383.266 65.456 383.41 66.488 383.698 67.376C383.986 68.264 384.454 68.954 385.102 69.446C385.762 69.938 386.638 70.184 387.73 70.184ZM409.835 74.54C407.879 74.54 406.163 74.102 404.687 73.226C403.211 72.35 402.059 71.144 401.231 69.608C400.415 68.06 400.007 66.284 400.007 64.28C400.007 62.252 400.427 60.47 401.267 58.934C402.107 57.386 403.265 56.18 404.741 55.316C406.217 54.452 407.915 54.02 409.835 54.02C411.791 54.02 413.507 54.458 414.983 55.334C416.471 56.21 417.629 57.422 418.457 58.97C419.285 60.506 419.699 62.276 419.699 64.28C419.699 66.296 419.279 68.078 418.439 69.626C417.611 71.162 416.453 72.368 414.965 73.244C413.489 74.108 411.779 74.54 409.835 74.54ZM409.835 69.968C411.407 69.968 412.577 69.44 413.345 68.384C414.125 67.316 414.515 65.948 414.515 64.28C414.515 62.552 414.119 61.172 413.327 60.14C412.547 59.108 411.383 58.592 409.835 58.592C408.767 58.592 407.891 58.832 407.207 59.312C406.523 59.792 406.013 60.458 405.677 61.31C405.353 62.162 405.191 63.152 405.191 64.28C405.191 66.02 405.581 67.406 406.361 68.438C407.153 69.458 408.311 69.968 409.835 69.968ZM423.298 74V54.56H427.618V59.312L427.15 58.7C427.402 58.028 427.738 57.416 428.158 56.864C428.578 56.312 429.094 55.856 429.706 55.496C430.174 55.208 430.684 54.986 431.236 54.83C431.788 54.662 432.358 54.56 432.946 54.524C433.534 54.476 434.122 54.488 434.71 54.56V59.132C434.17 58.964 433.54 58.91 432.82 58.97C432.112 59.018 431.47 59.18 430.894 59.456C430.318 59.72 429.832 60.074 429.436 60.518C429.04 60.95 428.74 61.466 428.536 62.066C428.332 62.654 428.23 63.32 428.23 64.064V74H423.298ZM449.438 74C448.094 74.252 446.774 74.36 445.478 74.324C444.194 74.3 443.042 74.078 442.022 73.658C441.014 73.226 440.246 72.536 439.718 71.588C439.238 70.7 438.986 69.8 438.962 68.888C438.938 67.964 438.926 66.92 438.926 65.756V49.16H443.822V65.468C443.822 66.224 443.828 66.908 443.84 67.52C443.864 68.12 443.99 68.6 444.218 68.96C444.65 69.644 445.34 70.016 446.288 70.076C447.236 70.136 448.286 70.088 449.438 69.932V74ZM435.614 58.34V54.56H449.438V58.34H435.614Z" fill="#010104" fill-opacity="0.85"/>
<path d="M202.59 118L195.15 96.4H197.445L204.03 115.495L210.66 96.4H212.955L205.515 118H202.59ZM214.92 98.725V96.25H217.125V98.725H214.92ZM214.92 118V101.8H217.125V118H214.92ZM228.476 118.45C226.896 118.45 225.526 118.1 224.366 117.4C223.216 116.7 222.321 115.715 221.681 114.445C221.041 113.175 220.721 111.685 220.721 109.975C220.721 108.205 221.036 106.675 221.666 105.385C222.296 104.095 223.181 103.1 224.321 102.4C225.471 101.7 226.826 101.35 228.386 101.35C229.986 101.35 231.351 101.72 232.481 102.46C233.611 103.19 234.466 104.24 235.046 105.61C235.626 106.98 235.891 108.615 235.841 110.515H233.591V109.735C233.551 107.635 233.096 106.05 232.226 104.98C231.366 103.91 230.106 103.375 228.446 103.375C226.706 103.375 225.371 103.94 224.441 105.07C223.521 106.2 223.061 107.81 223.061 109.9C223.061 111.94 223.521 113.525 224.441 114.655C225.371 115.775 226.686 116.335 228.386 116.335C229.546 116.335 230.556 116.07 231.416 115.54C232.286 115 232.971 114.225 233.471 113.215L235.526 114.01C234.886 115.42 233.941 116.515 232.691 117.295C231.451 118.065 230.046 118.45 228.476 118.45ZM222.281 110.515V108.67H234.656V110.515H222.281ZM242.034 118L237.084 101.785L239.289 101.8L243.129 114.385L246.984 101.8H248.994L252.849 114.385L256.719 101.8H258.909L253.959 118H252.039L247.989 105.1L243.954 118H242.034ZM273.903 118.45C272.393 118.45 271.103 118.075 270.033 117.325C268.963 116.565 268.143 115.54 267.573 114.25C267.003 112.96 266.718 111.505 266.718 109.885C266.718 108.275 266.998 106.825 267.558 105.535C268.128 104.245 268.943 103.225 270.003 102.475C271.063 101.725 272.333 101.35 273.813 101.35C275.333 101.35 276.613 101.72 277.653 102.46C278.693 103.2 279.478 104.215 280.008 105.505C280.548 106.785 280.818 108.245 280.818 109.885C280.818 111.495 280.553 112.95 280.023 114.25C279.493 115.54 278.713 116.565 277.683 117.325C276.653 118.075 275.393 118.45 273.903 118.45ZM274.128 116.395C275.278 116.395 276.228 116.115 276.978 115.555C277.728 114.995 278.288 114.225 278.658 113.245C279.028 112.255 279.213 111.135 279.213 109.885C279.213 108.615 279.028 107.495 278.658 106.525C278.288 105.545 277.728 104.78 276.978 104.23C276.238 103.68 275.303 103.405 274.173 103.405C273.013 103.405 272.053 103.69 271.293 104.26C270.533 104.83 269.968 105.605 269.598 106.585C269.238 107.565 269.058 108.665 269.058 109.885C269.058 111.115 269.243 112.225 269.613 113.215C269.993 114.195 270.558 114.97 271.308 115.54C272.058 116.11 272.998 116.395 274.128 116.395ZM279.213 118V105.805H278.973V96.4H281.193V118H279.213ZM292.256 118.45C290.676 118.45 289.306 118.1 288.146 117.4C286.996 116.7 286.101 115.715 285.461 114.445C284.821 113.175 284.501 111.685 284.501 109.975C284.501 108.205 284.816 106.675 285.446 105.385C286.076 104.095 286.961 103.1 288.101 102.4C289.251 101.7 290.606 101.35 292.166 101.35C293.766 101.35 295.131 101.72 296.261 102.46C297.391 103.19 298.246 104.24 298.826 105.61C299.406 106.98 299.671 108.615 299.621 110.515H297.371V109.735C297.331 107.635 296.876 106.05 296.006 104.98C295.146 103.91 293.886 103.375 292.226 103.375C290.486 103.375 289.151 103.94 288.221 105.07C287.301 106.2 286.841 107.81 286.841 109.9C286.841 111.94 287.301 113.525 288.221 114.655C289.151 115.775 290.466 116.335 292.166 116.335C293.326 116.335 294.336 116.07 295.196 115.54C296.066 115 296.751 114.225 297.251 113.215L299.306 114.01C298.666 115.42 297.721 116.515 296.471 117.295C295.231 118.065 293.826 118.45 292.256 118.45ZM286.061 110.515V108.67H298.436V110.515H286.061ZM311.77 118C310.86 118.19 309.96 118.265 309.07 118.225C308.19 118.185 307.4 117.995 306.7 117.655C306.01 117.315 305.485 116.785 305.125 116.065C304.835 115.465 304.675 114.86 304.645 114.25C304.625 113.63 304.615 112.925 304.615 112.135V97.3H306.805V112.045C306.805 112.725 306.81 113.295 306.82 113.755C306.84 114.205 306.945 114.605 307.135 114.955C307.495 115.625 308.065 116.025 308.845 116.155C309.635 116.285 310.61 116.255 311.77 116.065V118ZM301.15 103.69V101.8H311.77V103.69H301.15ZM319.596 118.45C318.376 118.45 317.351 118.23 316.521 117.79C315.701 117.35 315.086 116.765 314.676 116.035C314.266 115.305 314.061 114.51 314.061 113.65C314.061 112.77 314.236 112.02 314.586 111.4C314.946 110.77 315.431 110.255 316.041 109.855C316.661 109.455 317.376 109.15 318.186 108.94C319.006 108.74 319.911 108.565 320.901 108.415C321.901 108.255 322.876 108.12 323.826 108.01C324.786 107.89 325.626 107.775 326.346 107.665L325.566 108.145C325.596 106.545 325.286 105.36 324.636 104.59C323.986 103.82 322.856 103.435 321.246 103.435C320.136 103.435 319.196 103.685 318.426 104.185C317.666 104.685 317.131 105.475 316.821 106.555L314.676 105.925C315.046 104.475 315.791 103.35 316.911 102.55C318.031 101.75 319.486 101.35 321.276 101.35C322.756 101.35 324.011 101.63 325.041 102.19C326.081 102.74 326.816 103.54 327.246 104.59C327.446 105.06 327.576 105.585 327.636 106.165C327.696 106.745 327.726 107.335 327.726 107.935V118H325.761V113.935L326.331 114.175C325.781 115.565 324.926 116.625 323.766 117.355C322.606 118.085 321.216 118.45 319.596 118.45ZM319.851 116.545C320.881 116.545 321.781 116.36 322.551 115.99C323.321 115.62 323.941 115.115 324.411 114.475C324.881 113.825 325.186 113.095 325.326 112.285C325.446 111.765 325.511 111.195 325.521 110.575C325.531 109.945 325.536 109.475 325.536 109.165L326.376 109.6C325.626 109.7 324.811 109.8 323.931 109.9C323.061 110 322.201 110.115 321.351 110.245C320.511 110.375 319.751 110.53 319.071 110.71C318.611 110.84 318.166 111.025 317.736 111.265C317.306 111.495 316.951 111.805 316.671 112.195C316.401 112.585 316.266 113.07 316.266 113.65C316.266 114.12 316.381 114.575 316.611 115.015C316.851 115.455 317.231 115.82 317.751 116.11C318.281 116.4 318.981 116.545 319.851 116.545ZM331.931 98.725V96.25H334.136V98.725H331.931ZM331.931 118V101.8H334.136V118H331.931ZM338.933 118V95.95H341.138V118H338.933ZM351.68 118.435C349.78 118.435 348.215 118.025 346.985 117.205C345.765 116.385 345.015 115.245 344.735 113.785L346.985 113.41C347.225 114.33 347.77 115.065 348.62 115.615C349.48 116.155 350.54 116.425 351.8 116.425C353.03 116.425 354 116.17 354.71 115.66C355.42 115.14 355.775 114.435 355.775 113.545C355.775 113.045 355.66 112.64 355.43 112.33C355.21 112.01 354.755 111.715 354.065 111.445C353.375 111.175 352.345 110.855 350.975 110.485C349.505 110.085 348.355 109.685 347.525 109.285C346.695 108.885 346.105 108.425 345.755 107.905C345.405 107.375 345.23 106.73 345.23 105.97C345.23 105.05 345.49 104.245 346.01 103.555C346.53 102.855 347.25 102.315 348.17 101.935C349.09 101.545 350.16 101.35 351.38 101.35C352.6 101.35 353.69 101.55 354.65 101.95C355.62 102.34 356.4 102.89 356.99 103.6C357.58 104.31 357.93 105.135 358.04 106.075L355.79 106.48C355.64 105.53 355.165 104.78 354.365 104.23C353.575 103.67 352.57 103.38 351.35 103.36C350.2 103.33 349.265 103.55 348.545 104.02C347.825 104.48 347.465 105.095 347.465 105.865C347.465 106.295 347.595 106.665 347.855 106.975C348.115 107.275 348.585 107.56 349.265 107.83C349.955 108.1 350.935 108.395 352.205 108.715C353.695 109.095 354.865 109.495 355.715 109.915C356.565 110.335 357.17 110.83 357.53 111.4C357.89 111.97 358.07 112.675 358.07 113.515C358.07 115.045 357.5 116.25 356.36 117.13C355.23 118 353.67 118.435 351.68 118.435Z" fill="#010104" fill-opacity="0.85"/>
</g>
<defs>
<filter id="filter0_dddd_79_1951" x="0" y="0" width="646.5" height="216" filterUnits="userSpaceOnUse" color-interpolation-filters="sRGB">
<feFlood flood-opacity="0" result="BackgroundImageFix"/>
<feColorMatrix in="SourceAlpha" type="matrix" values="0 0 0 0 0 0 0 0 0 0 0 0 0 0 0 0 0 0 127 0" result="hardAlpha"/>
<feOffset dy="3"/>
<feGaussianBlur stdDeviation="2.25"/>
<feColorMatrix type="matrix" values="0 0 0 0 0.211765 0 0 0 0 0.207843 0 0 0 0 0.211765 0 0 0 0.05 0"/>
<feBlend mode="normal" in2="BackgroundImageFix" result="effect1_dropShadow_79_1951"/>
<feColorMatrix in="SourceAlpha" type="matrix" values="0 0 0 0 0 0 0 0 0 0 0 0 0 0 0 0 0 0 127 0" result="hardAlpha"/>
<feOffset dy="9"/>
<feGaussianBlur stdDeviation="4.5"/>
<feColorMatrix type="matrix" values="0 0 0 0 0.211765 0 0 0 0 0.207843 0 0 0 0 0.211765 0 0 0 0.04 0"/>
<feBlend mode="normal" in2="effect1_dropShadow_79_1951" result="effect2_dropShadow_79_1951"/>
<feColorMatrix in="SourceAlpha" type="matrix" values="0 0 0 0 0 0 0 0 0 0 0 0 0 0 0 0 0 0 127 0" result="hardAlpha"/>
<feOffset dy="21"/>
<feGaussianBlur stdDeviation="6"/>
<feColorMatrix type="matrix" values="0 0 0 0 0.211765 0 0 0 0 0.207843 0 0 0 0 0.211765 0 0 0 0.03 0"/>
<feBlend mode="normal" in2="effect2_dropShadow_79_1951" result="effect3_dropShadow_79_1951"/>
<feColorMatrix in="SourceAlpha" type="matrix" values="0 0 0 0 0 0 0 0 0 0 0 0 0 0 0 0 0 0 127 0" result="hardAlpha"/>
<feOffset dy="37.5"/>
<feGaussianBlur stdDeviation="7.5"/>
<feColorMatrix type="matrix" values="0 0 0 0 0.211765 0 0 0 0 0.207843 0 0 0 0 0.211765 0 0 0 0.01 0"/>
<feBlend mode="normal" in2="effect3_dropShadow_79_1951" result="effect4_dropShadow_79_1951"/>
<feBlend mode="normal" in="SourceGraphic" in2="effect4_dropShadow_79_1951" result="shape"/>
</filter>
</defs>
</svg>
